<?xml version="1.0" standalone="no"?> <!DOCTYPE svg PUBLIC "-//W3C//DTD SVG 1.0//EN" "http://www.w3.org/TR/2001/REC-SVG-20010904/DTD/svg10.dtd" > <svg xmlns="http://www.w3.org/2000/svg" width="100%" height="100%">
<defs >
<font horiz-adv-x="293" ><font-face
    font-family=""
    units-per-em="1000"
    panose-1="0 0 0 0 0 0 0 0 0 0"
    ascent="812"
    descent="-188"
    alphabetic="0" />
<missing-glyph horiz-adv-x="102" />
<glyph unicode=" " glyph-name="space" horiz-adv-x="102" />
<glyph unicode="!" glyph-name="exclam" horiz-adv-x="152" d="M127 0H23V128H127V0ZM138 744L94 153H57L14 744H138Z" />
<glyph unicode="&quot;" glyph-name="quotedbl" horiz-adv-x="220" d="M99 569H17V744H99V569ZM203 569H121V744H203V569Z" />
<glyph unicode="#" glyph-name="numbersign" horiz-adv-x="366" d="M195 744L175 527H215L235 744H318L298 527H363L355 445H290L281 340H345L336 256H273L250 0H167L190 256H150L127 0H45L68 256H3L12 340H75L85 445H21L30 527H92L112 744H195ZM158 340H198L207
445H167L158 340Z" />
<glyph unicode="$" glyph-name="dollar" horiz-adv-x="335" d="M148 -8Q82 -6 49 30T15 133V276H121V146Q121 123 127 111T148 95V319L82 398Q63 420 51 441T31 485T20 531T16 586V606Q16 674 50 711T148 751V812H183V751Q248 749 277 719T306 622V505H208V611Q208
628 203 639T183 654V455L254 371Q275 347 288 326T308 284T318 240T321 188V165Q321 87 286 41T183 -8V-75H148V-8ZM210 179Q210 213 205 233T183 277V95Q210 105 210 157V179ZM123 584Q123 555 128 536T148 498V654Q133 650 128 638T123 602V584Z" />
<glyph unicode="%" glyph-name="percent" horiz-adv-x="465" d="M14 652Q14 699 39 724T106 749H125Q167 749 191 724T215 652V508Q215 464 192 438T125 411H106Q66 411 40 435T14 508V652ZM251 237Q251 284 276 309T343 334H361Q403 334 427 309T451 237V93Q451
49 428 23T362 -4H343Q303 -4 277 20T251 93V237ZM405 744L137 0H63L331 744H405ZM134 651Q134 661 129 667T113 674Q104 674 100 668T95 651V510Q95 500 99 494T113 487Q124 487 129 493T134 510V651ZM350 72Q361 72 365 79T370 95V236Q370 246 366 252T350 259Q340
259 336 253T332 236V95Q332 86 336 79T350 72Z" />
<glyph unicode="&amp;" glyph-name="ampersand" horiz-adv-x="425" d="M13 231Q13 267 21 296T41 349T70 391T102 424Q82 469 70 510T57 599V625Q57 650 63 673T84 713T122 740T177 751H197Q233 751 255 741T289 713T305 671T310 620V609Q310 583 307 561T293
517T265 472T216 420L304 218Q311 272 311 333T311 447H410Q408 343 400 261T364 110Q380 94 394 89T423 82L394 -18Q373 -14 350 -7T304 24Q290 10 268 1T212 -9H194Q106 -9 60 44T13 194V231ZM213 87Q236 87 253 99L251 105L139 344Q132 328 127 305T122 250V235Q122
155 148 121T213 87ZM156 604Q156 575 163 551T184 492Q204 522 209 545T215 603V619Q215 641 209 652T186 663Q156 663 156 618V604Z" />
<glyph unicode="&apos;" glyph-name="quotesingle" horiz-adv-x="118" d="M101 569H17V744H101V569Z" />
<glyph unicode="(" glyph-name="parenleft" horiz-adv-x="207" d="M31 344Q31 422 40 489T63 614T97 720T138 808H205Q176 728 156 610T135 347Q135 201 157 79T208 -131H141Q122 -94 103 -46T67 62T41 192T31 344Z" />
<glyph unicode=")" glyph-name="parenright" horiz-adv-x="207" d="M72 347Q72 491 52 609T2 808H69Q90 768 109 720T143 615T167 490T176 344Q176 263 166 193T140 63T105 -45T66 -131H-1Q27 -43 49 79T72 347Z" />
<glyph unicode="*" glyph-name="asterisk" horiz-adv-x="237" d="M195 717L226 662L168 638L226 611L194 557L144 596L151 531H86L93 596L43 557L11 611L68 638L11 662L42 717L92 679L86 744H151L145 679L195 717Z" />
<glyph unicode="+" glyph-name="plus" horiz-adv-x="337" d="M123 260H16V345H123V471H214V345H321V260H214V135H123V260Z" />
<glyph unicode="," glyph-name="comma" horiz-adv-x="137" d="M38 -90Q43 -77 50 -51T59 0H16V128H121V34Q121 -13 112 -43T94 -90H38Z" />
<glyph unicode="-" glyph-name="hyphen" horiz-adv-x="173" d="M157 347V249H16V347H157Z" />
<glyph unicode="." glyph-name="period" horiz-adv-x="137" d="M121 0H16V128H121V0Z" />
<glyph unicode="/" glyph-name="slash" horiz-adv-x="209" d="M77 -131H-7L121 808H205L77 -131Z" />
<glyph unicode="0" glyph-name="zero" horiz-adv-x="341" d="M320 146Q320 113 311 85T285 35T241 3T181 -9H156Q90 -9 56 30T21 146V580Q21 661 53 706T162 751H183Q223 751 249 739T291 704T313 651T320 582V146ZM205 586Q205 615 198 628T170 641Q150 641 143
628T136 586V154Q136 134 141 119T169 104Q191 104 198 118T205 154V586Z" />
<glyph unicode="1" glyph-name="one" horiz-adv-x="224" d="M8 570V662Q58 665 78 682T107 744H198V0H84V570H8Z" />
<glyph unicode="2" glyph-name="two" horiz-adv-x="330" d="M163 643Q147 643 141 634T135 604V477H27V613Q27 640 33 664T53 708T91 739T150 751H173Q236 751 273 720T311 613V576Q311 543 310 519T302 471T282 422T245 361Q230 338 210 311T173 259Q148 223
134 199T112 158T104 129T102 106H202V249H316V0H8V56Q8 92 11 121T24 181T51 245T95 327L160 442Q172 463 178 478T188 506T191 530T192 556V604Q192 625 185 634T163 643Z" />
<glyph unicode="3" glyph-name="three" horiz-adv-x="327" d="M24 520V614Q24 636 29 660T48 704T83 738T141 751H169Q239 751 270 713T302 612V527Q302 498 299 478T289 445T274 423T255 410Q281 400 295 381T309 321V138Q309 70 274 31T178 -9H147Q111 -9 86
1T46 28T23 69T16 119V270H128V148Q128 104 161 104Q192 104 192 148V303Q192 323 187 332T162 341H101V457H154Q175 457 180 465T186 499V603Q186 626 180 635T157 644Q142 644 136 636T129 604V520H24Z" />
<glyph unicode="4" glyph-name="four" horiz-adv-x="346" d="M161 480Q131 383 93 282H161V480ZM7 273Q23 315 46 378T93 510T139 642T174 747H272V282H341V180H272V0H161V180H7V273Z" />
<glyph unicode="5" glyph-name="five" horiz-adv-x="329" d="M26 333V744H304V632H137V465Q151 494 174 516T228 538H232Q254 538 269 531T293 511T307 482T311 450V131Q311 105 304 80T280 35T238 3T175 -9H154Q111 -9 84 3T42 35T22 76T16 119V272H132V141Q132
122 138 110T162 98Q178 98 184 110T190 141V378Q190 394 187 408T164 422Q145 422 141 408T137 378V333H26Z" />
<glyph unicode="6" glyph-name="six" horiz-adv-x="336" d="M170 98Q203 98 203 145V326Q203 372 170 372Q137 372 137 328V145Q137 98 170 98ZM237 475Q260 475 276 467T301 445T315 417T319 387V140Q319 110 312 83T288 36T245 3T181 -9H160Q122 -9 96 2T53
34T29 80T21 135V605Q21 673 51 712T153 751H173Q243 751 274 718T305 634V524H190V609Q190 622 185 633T163 645Q146 645 141 634T136 609V408Q143 419 152 431T174 452T201 468T233 475H237Z" />
<glyph unicode="7" glyph-name="seven" horiz-adv-x="306" d="M295 744V635L254 398Q245 344 239 295T228 206T223 134T221 84V0H84V73Q84 93 86 117T94 174T110 249T138 347Q162 429 176 481T197 565T206 614T208 642H122V524H15V744H295Z" />
<glyph unicode="8" glyph-name="eight" horiz-adv-x="329" d="M195 295Q195 316 188 327T164 338Q147 338 141 328T134 295V137Q134 121 141 111T165 100Q181 100 188 110T195 137V295ZM193 610Q193 626 189 638T164 651Q144 651 140 639T136 610V491Q136 475
142 464T165 453Q179 453 186 463T193 490V610ZM305 508Q305 468 290 446T257 412Q283 397 298 374T313 308V129Q313 101 305 76T281 32T238 2T174 -9H153Q116 -9 90 2T48 32T24 76T16 131V308Q16 350 33 375T68 412Q52 425 38 446T23 508V624Q23 647 29 669T50
710T89 739T152 751H172Q242 751 273 714T305 620V508Z" />
<glyph unicode="9" glyph-name="nine" horiz-adv-x="336" d="M101 267Q81 267 65 276T39 301T23 334T17 371V611Q17 640 24 665T47 710T90 740T155 751H178Q217 751 243 740T285 711T308 667T315 611V121Q315 64 284 28T185 -9H160Q124 -9 99 0T59 27T37 67T30
120V218H147V134Q147 120 152 108T175 96Q191 96 195 108T200 134V333Q194 324 185 313T163 291T136 274T104 267H101ZM166 644Q144 644 139 629T133 598V417Q133 370 166 370Q185 370 192 382T200 415V598Q200 616 194 630T166 644Z" />
<glyph unicode=":" glyph-name="colon" horiz-adv-x="141" d="M123 0H18V128H123V0ZM123 299H18V427H123V299Z" />
<glyph unicode=";" glyph-name="semicolon" horiz-adv-x="141" d="M40 -90Q45 -77 52 -51T61 0H18V128H123V34Q123 -13 114 -43T96 -90H40Z" />
<glyph unicode="&lt;" glyph-name="less" horiz-adv-x="283" d="M10 341L270 445V363L108 302L270 242V161L10 265V341Z" />
<glyph unicode="=" glyph-name="equal" horiz-adv-x="334" d="M316 287V211H18V287H316ZM316 394V318H18V394H316Z" />
<glyph unicode="&gt;" glyph-name="greater" horiz-adv-x="283" d="M13 445L273 341V265L13 161V242L174 303L13 363V445Z" />
<glyph unicode="?" glyph-name="question" horiz-adv-x="305" d="M92 153V273Q92 297 93 313T98 344T108 372T127 407L156 456Q164 469 168 480T175 503T178 526T179 553V607Q179 628 173 637T150 646Q133 646 128 637T123 607V487H15V607Q15 638 20 665T38 711T76
742T139 753H161Q200 753 225 744T266 716T287 673T294 614V540Q294 521 292 505T284 473T271 441T249 406L216 360Q205 344 199 332T189 306T184 278T183 240V153H92ZM190 0H86V128H190V0Z" />
<glyph unicode="@" glyph-name="at" horiz-adv-x="544" d="M482 -30Q474 -42 458 -61T417 -97T357 -126T280 -139H273Q229 -139 184 -126T102 -72T41 48T17 257V347Q17 725 279 725H291Q416 725 471 647T527 415V325Q527 245 518 190T492 101T451 53T396 38H394Q368
38 352 45T325 62T311 82T304 100Q284 68 265 53T220 38H214Q201 38 188 44T164 64T147 98T142 146L155 455Q156 471 160 486T174 514T196 534T227 542H232Q253 542 270 528T302 491L304 538H410L389 128Q389 121 390 116T402 110Q412 110 420 120T435 155T445
221T449 323V416Q449 482 439 527T410 600T360 640T291 652H279Q236 652 203 635T146 581T110 486T98 345V258Q98 183 106 130T129 42T162 -15T200 -46T239 -60T273 -63H280Q309 -63 334 -54T380 -30T414 -1T435 27L482 -30ZM299 423Q300 439 296 447T279 455Q268
455 264 447T259 423L246 155Q245 144 247 134T264 123Q276 123 280 132T286 155L299 423Z" />
<glyph unicode="A" glyph-name="A" horiz-adv-x="320" d="M197 140H114L100 0H-1L90 744H224L321 0H212L197 140ZM126 251H185L155 526L126 251Z" />
<glyph unicode="B" glyph-name="B" horiz-adv-x="345" d="M23 744H201Q236 744 259 735T295 711T314 673T320 623V509Q320 462 303 438T264 406Q275 402 286 395T307 376T323 344T329 297V136Q329 77 301 39T209 0H23V744ZM136 339V105H170Q197 105 205 117T214
155V291Q214 314 206 326T170 339H136ZM136 643V450H170Q193 450 201 464T209 502V596Q209 619 201 631T170 643H136Z" />
<glyph unicode="C" glyph-name="C" horiz-adv-x="336" d="M208 151V324H319V152Q319 122 313 93T292 42T251 5T184 -9H159Q116 -9 89 5T47 41T26 92T20 148V602Q20 630 26 657T49 705T91 738T155 751H181Q227 751 254 737T296 701T315 651T319 596V463H208V594Q208
618 200 630T170 643Q149 643 142 631T135 594V152Q135 101 171 101Q191 101 199 114T208 151Z" />
<glyph unicode="D" glyph-name="D" horiz-adv-x="344" d="M23 744H196Q232 744 256 734T296 706T317 661T323 601V148Q323 79 295 40T196 0H23V744ZM136 108H163Q189 108 198 122T207 166V585Q207 617 198 630T168 643H136V108Z" />
<glyph unicode="E" glyph-name="E" horiz-adv-x="296" d="M280 744V636H136V441H249V328H136V113H286V0H23V744H280Z" />
<glyph unicode="F" glyph-name="F" horiz-adv-x="290" d="M23 744H280V636H136V440H250V327H136V0H23V744Z" />
<glyph unicode="G" glyph-name="G" horiz-adv-x="341" d="M128 -10Q78 -10 49 29T20 126V591Q20 622 26 651T49 702T92 737T159 751H181Q226 751 253 738T294 701T312 647T316 584V508H206V592Q206 617 199 630T170 643Q135 643 135 592V157Q135 104 172 104Q194
104 204 117T214 152V338H163V452H321V0H257Q256 3 251 26T238 73Q235 64 227 50T205 22T174 0T135 -10H128Z" />
<glyph unicode="H" glyph-name="H" horiz-adv-x="349" d="M136 0H23V744H136V446H213V744H326V0H213V327H136V0Z" />
<glyph unicode="I" glyph-name="I" horiz-adv-x="159" d="M136 0H23V744H136V0Z" />
<glyph unicode="J" glyph-name="J" horiz-adv-x="319" d="M126 328V145Q126 125 131 115T153 104H157Q173 104 178 116T183 145V744H298V136Q298 63 264 29T170 -6H139Q112 -6 89 0T50 23T24 65T15 129V328H126Z" />
<glyph unicode="K" glyph-name="K" horiz-adv-x="342" d="M136 0H23V744H136V446L225 744H335L230 398L346 0H230L136 323V0Z" />
<glyph unicode="L" glyph-name="L" horiz-adv-x="284" d="M136 744V115H274V0H23V744H136Z" />
<glyph unicode="M" glyph-name="M" horiz-adv-x="435" d="M23 744H168L222 351L277 744H412V0H306V481L238 0H193L124 481V0H23V744Z" />
<glyph unicode="N" glyph-name="N" horiz-adv-x="348" d="M125 744L222 345V744H325V0H233L125 428V0H23V744H125Z" />
<glyph unicode="O" glyph-name="O" horiz-adv-x="349" d="M329 166Q329 127 322 95T298 40T254 4T185 -9H166Q125 -9 98 3T53 39T28 95T20 166V580Q20 619 27 650T52 704T97 739T165 751H184Q225 751 253 739T298 705T322 651T329 581V166ZM214 586Q214 643 175
643Q153 643 144 629T135 586V158Q135 134 143 118T176 101Q199 101 206 117T214 158V586Z" />
<glyph unicode="P" glyph-name="P" horiz-adv-x="333" d="M136 309V0H23V744H202Q262 744 290 716T318 621V445Q318 379 289 344T202 309H136ZM136 416H165Q191 416 197 431T204 470V592Q204 614 197 628T165 643H136V416Z" />
<glyph unicode="Q" glyph-name="Q" horiz-adv-x="349" d="M329 166Q329 98 306 52T223 -5L275 -155H140V-7Q74 1 47 47T20 166V580Q20 619 27 650T52 704T97 739T165 751H184Q225 751 253 739T298 705T322 651T329 581V166ZM214 586Q214 643 175 643Q153 643 144
629T135 586V158Q135 134 143 118T176 101Q199 101 206 117T214 158V586Z" />
<glyph unicode="R" glyph-name="R" horiz-adv-x="339" d="M136 438H166Q189 438 198 452T207 491V595Q207 619 200 631T166 643H136V438ZM136 0H23V744H206Q263 744 291 718T319 629V497Q319 474 314 458T302 430T286 412T270 402Q289 394 304 377T319 321V60Q319
37 322 25T330 5V0H218Q214 6 211 18T207 61V285Q207 310 200 321T165 332H136V0Z" />
<glyph unicode="S" glyph-name="S" horiz-adv-x="333" d="M180 751Q250 751 279 720T309 622V500H200V607Q200 626 194 638T168 651Q148 651 142 638T135 599V585Q135 569 137 556T144 531T158 504T181 471L253 378Q272 353 285 333T305 291T316 246T320 190V166Q320
84 285 38T174 -8H152Q84 -8 49 28T14 133V282H126V152Q126 100 163 100Q183 100 191 114T200 164V181Q200 201 199 215T193 243T179 271T154 306L82 398Q64 421 52 442T33 485T23 530T20 582V606Q20 681 56 716T159 751H180Z" />
<glyph unicode="T" glyph-name="T" horiz-adv-x="320" d="M311 744V636H216V0H104V636H9V744H311Z" />
<glyph unicode="U" glyph-name="U" horiz-adv-x="345" d="M21 744H136V155Q136 131 144 117T172 102Q192 102 200 116T209 155V744H324V162Q324 83 291 37T182 -9H162Q87 -9 54 36T21 162V744Z" />
<glyph unicode="V" glyph-name="V" horiz-adv-x="327" d="M1 744H116L167 232L219 744H326L232 0H95L1 744Z" />
<glyph unicode="W" glyph-name="W" horiz-adv-x="531" d="M321 744L372 262L424 744H530L435 0H314L267 433L219 0H94L1 744H115L166 263L216 744H321Z" />
<glyph unicode="X" glyph-name="X" horiz-adv-x="342" d="M13 744H128L176 509L222 744H332L247 398L343 0H226L170 269L113 0H-1L97 398L13 744Z" />
<glyph unicode="Y" glyph-name="Y" horiz-adv-x="306" d="M211 309V0H98V310L-4 744H106L158 466L208 744H310L211 309Z" />
<glyph unicode="Z" glyph-name="Z" horiz-adv-x="305" d="M289 744V646L126 109H297V0H8V101L169 638H18V744H289Z" />
<glyph unicode="[" glyph-name="bracketleft" horiz-adv-x="192" d="M186 728H132V-50H186V-130H40V808H186V728Z" />
<glyph unicode="\" glyph-name="backslash" horiz-adv-x="209" d="M4 808H88L215 -131H132L4 808Z" />
<glyph unicode="]" glyph-name="bracketright" horiz-adv-x="193" d="M6 -50H60V728H6L7 808H153L152 -130H6V-50Z" />
<glyph unicode="^" glyph-name="asciicircum" horiz-adv-x="221" d="M219 439H142L109 600L78 439H2L71 744H150L219 439Z" />
<glyph unicode="_" glyph-name="underscore" horiz-adv-x="313" d="M5 -20H308V-104H5V-20Z" />
<glyph unicode="`" glyph-name="grave" horiz-adv-x="342" d="M146 567L107 697H198L235 567H146Z" />
<glyph unicode="a" glyph-name="a" horiz-adv-x="310" d="M15 207Q15 247 26 272T66 315Q75 321 88 328T116 341T141 354T159 363Q167 368 169 371T172 386V420Q172 440 166 447T146 455H144Q128 455 123 447T117 421V364H21V440Q21 455 24 473T39 506T73 531T134
542H154Q193 542 216 534T253 510T270 476T275 436V116Q275 106 278 103T292 99H311V0H209Q192 0 183 13T174 61Q169 52 162 41T143 20T117 4T86 -3H83Q67 -3 55 4T33 23T20 50T15 81V207ZM172 272Q163 267 153 260T134 245Q126 237 123 228T120 202V128Q120 93
145 93Q172 93 172 133V272Z" />
<glyph unicode="b" glyph-name="b" horiz-adv-x="312" d="M127 744V478Q131 484 138 494T157 515T183 533T216 541H219Q255 541 274 515T294 449V115Q294 66 269 31T197 -4H195Q175 -4 160 4T132 25T113 50T101 72Q96 53 93 32T88 0H20V744H127ZM127 136Q127 117
135 106T157 95Q172 95 178 106T185 135V400Q185 417 179 429T156 441Q140 441 134 429T127 400V136Z" />
<glyph unicode="c" glyph-name="c" horiz-adv-x="297" d="M282 241V120Q282 97 276 74T255 33T218 3T161 -9H141Q109 -9 86 1T47 29T25 70T17 121V414Q17 477 48 511T145 546H164Q197 546 220 537T256 512T276 475T282 429V333H179V406Q179 426 175 438T152 451Q134
451 130 439T125 407V132Q125 113 130 102T151 91Q167 91 173 102T179 131V241H282Z" />
<glyph unicode="d" glyph-name="d" horiz-adv-x="311" d="M291 744V0H184V61Q181 53 175 42T158 20T133 2T101 -5H100Q64 -5 42 26T19 109V437Q19 456 23 474T37 508T60 532T96 541H98Q116 541 130 535T154 519T172 499T184 481V744H291ZM184 397Q184 418 178
431T154 445Q126 445 126 402V136Q126 93 154 93Q171 93 177 105T184 142V397Z" />
<glyph unicode="e" glyph-name="e" horiz-adv-x="295" d="M159 545Q222 545 250 511T279 411V256H120V132Q120 114 126 103T149 92Q163 92 169 103T176 131V220H279V126Q279 54 245 22T154 -10H135Q81 -10 49 23T17 125V416Q17 471 45 508T139 545H159ZM120 344H179V412Q179
430 174 442T150 455Q130 455 125 443T120 412V344Z" />
<glyph unicode="f" glyph-name="f" horiz-adv-x="256" d="M247 645H199Q185 645 181 639T177 619V538H247V436H177V0H70V436H6V538H70V675Q70 686 73 698T85 720T108 737T146 744H247V645Z" />
<glyph unicode="g" glyph-name="g" horiz-adv-x="312" d="M185 64Q173 38 152 17T97 -5Q65 -5 42 22T19 95V417Q19 476 39 508T98 541Q133 541 153 522T187 476V538H292V-87Q292 -102 289 -120T273 -155T235 -183T166 -195H142Q106 -195 83 -188T46 -167T28 -138T23
-103V-25H126V-73Q126 -88 132 -96T153 -104H157Q174 -104 179 -96T185 -73V64ZM185 407Q185 424 179 435T155 446Q140 446 134 435T127 407V134Q127 116 134 105T156 94Q170 94 177 105T185 135V407Z" />
<glyph unicode="h" glyph-name="h" horiz-adv-x="313" d="M20 744H127V477Q141 501 163 521T216 541H221Q242 541 256 533T278 513T290 486T293 458V0H185V403Q185 422 179 432T157 443Q140 443 134 432T127 399V0H20V744Z" />
<glyph unicode="i" glyph-name="i" horiz-adv-x="147" d="M127 0H20V538H127V0ZM127 567H20V682H127V567Z" />
<glyph unicode="j" glyph-name="j" horiz-adv-x="148" d="M128 567H21V682H128V567ZM0 -86Q21 -86 21 -62V538H128V-110Q128 -134 122 -149T106 -173T84 -185T59 -188H-50V-86H0Z" />
<glyph unicode="k" glyph-name="k" horiz-adv-x="318" d="M210 538H317L216 308L324 0H213L127 249V0H20V744H127V342L210 538Z" />
<glyph unicode="l" glyph-name="l" horiz-adv-x="147" d="M127 0H20V744H127V0Z" />
<glyph unicode="m" glyph-name="m" horiz-adv-x="471" d="M20 538H125V477Q130 485 138 496T157 517T182 534T213 541H217Q249 541 265 522T287 478Q293 488 302 499T322 519T347 535T378 541H383Q418 541 434 519T451 460V0H344V399Q344 419 339 431T317 443Q302
443 296 434T289 407V0H182V399Q182 419 177 431T154 443Q137 443 132 432T127 399V0H20V538Z" />
<glyph unicode="n" glyph-name="n" horiz-adv-x="313" d="M20 538H125V475Q131 486 140 498T160 519T186 535T216 541H221Q242 541 255 533T277 513T289 486T293 458V0H185V403Q185 422 179 432T157 443Q140 443 134 432T127 399V0H20V538Z" />
<glyph unicode="o" glyph-name="o" horiz-adv-x="310" d="M17 130V407Q17 474 50 510T145 546H165Q225 546 259 512T293 411V130Q293 103 285 78T260 34T220 3T165 -9H145Q110 -9 86 2T46 33T24 78T17 130ZM125 406V135Q125 115 132 104T155 93Q171 93 178 105T185
135V406Q185 429 177 438T155 447Q141 447 133 438T125 406Z" />
<glyph unicode="p" glyph-name="p" horiz-adv-x="313" d="M127 538V480Q132 488 140 498T158 518T183 534T214 541H215Q256 541 275 512T294 440V102Q294 49 270 23T212 -4H210Q181 -4 161 13T127 47V-188H20V538H127ZM127 128Q127 107 136 97T157 87Q172 87 178
97T185 126V407Q185 446 157 446Q143 446 135 436T127 407V128Z" />
<glyph unicode="q" glyph-name="q" horiz-adv-x="313" d="M293 538V-188H186V61Q183 54 176 43T158 22T133 5T100 -3H98Q79 -3 64 6T39 32T24 69T19 114V419Q19 441 24 463T39 502T67 530T109 541H111Q131 541 146 534T174 514T195 486T212 456Q217 472 221 492T228
538H293ZM186 397Q186 421 177 431T154 441Q139 441 133 429T127 398V130Q127 108 135 99T157 90Q186 90 186 135V397Z" />
<glyph unicode="r" glyph-name="r" horiz-adv-x="280" d="M125 470Q128 477 134 489T150 513T174 532T207 541H211Q240 541 253 524T267 480V285H163V405Q163 422 161 430T145 438Q132 438 130 430T127 405V0H20V538H125V470Z" />
<glyph unicode="s" glyph-name="s" horiz-adv-x="278" d="M262 449V368H166V432Q166 462 142 462Q128 462 124 454T119 429V420Q119 400 124 389T144 360L209 282Q228 259 239 241T257 206T266 172T269 134V120Q269 96 263 73T242 32T204 2T148 -9H127Q95 -9 73
-1T37 23T17 58T11 101V198H111V121Q111 100 117 92T138 84Q163 84 163 121V130Q163 147 159 165T134 207L71 279Q39 316 29 348T18 418V433Q18 484 45 515T134 546H153Q185 546 206 538T239 517T257 486T262 449Z" />
<glyph unicode="t" glyph-name="t" horiz-adv-x="247" d="M131 0Q104 0 86 15T67 66V436H6V538H67V715H174V538H237V436H174V128Q174 114 177 109T195 103H237V0H131Z" />
<glyph unicode="u" glyph-name="u" horiz-adv-x="307" d="M287 0H184V64Q177 53 169 42T149 20T125 4T93 -2H91Q75 -2 62 5T40 26T25 55T20 89V538H127V135Q127 120 132 110T152 99Q169 99 174 110T180 138V538H287V0Z" />
<glyph unicode="v" glyph-name="v" horiz-adv-x="282" d="M-1 538H103L144 202L184 538H283L200 0H85L-1 538Z" />
<glyph unicode="w" glyph-name="w" horiz-adv-x="460" d="M81 0L-1 538H106L146 203L187 538H281L322 203L362 538H461L379 0H271L232 306L193 0H81Z" />
<glyph unicode="x" glyph-name="x" horiz-adv-x="282" d="M1 538H104L144 378L180 538H275L207 289L284 0H184L141 171L95 0H-2L75 287L1 538Z" />
<glyph unicode="y" glyph-name="y" horiz-adv-x="285" d="M-1 538H103L145 209L185 538H287L179 -108Q172 -148 157 -168T113 -188H12V-86H58Q72 -86 76 -80T82 -59L85 -36Q87 -19 86 -9T83 16L-1 538Z" />
<glyph unicode="z" glyph-name="z" horiz-adv-x="249" d="M233 538V449L109 98H241V0H7V94L128 442H18V538H233Z" />
<glyph unicode="{" glyph-name="braceleft" horiz-adv-x="200" d="M163 258Q163 238 159 202T149 127T140 53T135 -1Q135 -25 144 -38T178 -51H194V-131H162Q101 -131 70 -103T38 -11Q38 9 43 43T54 117T66 194T71 260Q71 275 65 285T44 295H20V387H41Q71 387
71 417Q71 445 66 485T55 565T43 642T38 698Q38 730 46 751T71 785T110 803T162 808H194V728H176Q153 728 144 716T135 682Q135 664 139 630T149 557T158 482T163 427Q163 396 155 375T117 341Q146 329 154 308T163 258Z" />
<glyph unicode="|" glyph-name="bar" horiz-adv-x="171" d="M126 -131H45V808H126V-131Z" />
<glyph unicode="}" glyph-name="braceright" horiz-adv-x="200" d="M37 427Q37 446 41 482T51 556T60 629T65 682Q65 704 57 716T25 728H6V808H38Q96 808 129 785T162 698Q162 678 157 642T146 566T135 485T130 417Q130 402 136 395T160 387H180V295H156Q141 295
136 285T130 260Q130 233 135 195T146 117T157 44T162 -11Q162 -75 131 -103T38 -131H6V-51H22Q48 -51 56 -38T65 -1Q65 17 61 52T51 127T42 202T37 258Q37 287 45 308T83 341Q54 353 46 374T37 427Z" />
<glyph unicode="~" glyph-name="asciitilde" horiz-adv-x="276" d="M130 351Q111 373 105 379T94 385Q88 385 88 374V304H13V420Q13 431 16 443T27 464T47 480T76 487Q98 487 114 477T150 442Q167 421 172 415T182 409Q188 409 188 419V492H263V374Q263 344 246
326T202 307Q182 307 167 316T130 351Z" />
<glyph unicode="&#xa1;" glyph-name="exclamdown" horiz-adv-x="150" d="M21 538H123V410H21V538ZM10 -206L53 385H90L132 -206H10Z" />
<glyph unicode="&#xa2;" glyph-name="cent" horiz-adv-x="305" d="M291 120Q291 97 285 75T266 34T230 4T175 -10V-75H138V-9Q103 -7 80 4T43 34T23 73T17 116V410Q17 473 46 508T138 545V609H175V546Q207 545 229 535T265 509T285 472T291 426V334H196V411Q196
423 192 435T175 452V88Q186 94 190 104T194 126V242H291V120ZM117 412V126Q117 114 121 103T138 87V452Q125 447 121 437T117 412Z" />
<glyph unicode="&#xa3;" glyph-name="sterling" horiz-adv-x="388" d="M189 254Q189 195 171 161T127 100H266V248H373V0H8V61Q20 71 33 84T58 116T78 157T86 213Q86 236 84 264T79 324H8V416H70Q67 449 65 482T63 548V589Q63 625 69 655T90 706T131 739T199 751H226Q265
751 289 740T327 709T346 667T351 622V495H244V598Q244 621 238 633T212 646Q191 646 185 634T179 598V513Q179 488 179 464T181 416H304V324H187Q188 304 188 287T189 254Z" />
<glyph unicode="&#xa5;" glyph-name="yen" horiz-adv-x="331" d="M222 0H109V230H7V310H109V339H7V418H96L4 744H115L166 491L217 744H318L233 418H324V339H222V310H324V230H222V0Z" />
<glyph unicode="&#xa6;" glyph-name="brokenbar" horiz-adv-x="171" d="M126 -131H45V341H126V-131ZM126 383H45V808H126V383Z" />
<glyph unicode="&#xa7;" glyph-name="section" horiz-adv-x="380" d="M368 243Q368 217 361 198T342 167T315 147T283 137Q298 120 307 107T322 80T328 51T330 15V-60Q330 -118 298 -156T195 -195H169Q109 -195 77 -161T44 -63V54H155V-50Q155 -70 162 -81T186
-92Q202 -92 207 -81T213 -48V-9Q213 10 212 23T205 49T189 74T162 102L87 168Q63 188 49 205T26 241T15 278T12 322V361Q12 402 34 426T97 457Q71 483 64 515T56 595V622Q56 647 62 670T84 711T125 740T189 751H214Q286 751 312 717T339 618V528H229V609Q229 634
223 642T199 651Q181 651 176 640T170 609V602Q170 581 171 567T178 540T191 517T215 492Q227 481 247 464T286 430Q315 403 331 384T356 347T366 311T368 270V243ZM207 346Q206 346 198 353T179 368L151 390Q138 388 130 379T121 346V329Q121 315 122 306T129
287T143 269T167 248Q171 244 176 240Q181 236 186 232T197 223L227 199Q232 200 237 203T246 212T252 228T255 256V263Q255 276 254 285T247 304T233 322T207 346Z" />
<glyph unicode="&#xa8;" glyph-name="dieresis" horiz-adv-x="342" d="M160 567H71V665H160V567ZM273 567H184V665H273V567Z" />
<glyph unicode="&#xa9;" glyph-name="copyright" horiz-adv-x="495" d="M243 -11Q135 -11 78 48T20 234V512Q20 631 78 693T244 755H256Q475 755 475 512V234Q475 170 459 124T414 47T343 3T253 -11H243ZM245 51H253Q295 51 324 66T370 107T395 169T403 247V504Q403
541 396 575T372 636T327 677T255 693H245Q201 693 172 679T125 641T101 581T94 504V247Q94 203 102 167T128 105T175 65T245 51ZM251 197Q262 197 266 205T270 225V340H362V213Q362 165 334 138T260 110H241Q188 110 162 142T136 218V518Q136 575 160 605T238
636H261Q281 636 299 631T331 614T353 580T361 526V443H268V519Q268 533 265 541T250 549Q238 549 235 541T231 518V225Q231 213 235 205T251 197Z" />
<glyph unicode="&#xaa;" glyph-name="ordfeminine" horiz-adv-x="186" d="M167 531Q167 522 175 522H186V459H126Q115 459 110 467T104 496Q98 483 85 470T52 456H51Q31 456 20 472T8 510V564Q8 591 17 604T47 629L96 654Q103 658 103 666V674Q103 692 89 692H88Q74
692 74 674V655H12V685Q12 697 14 708T23 728T44 742T81 748H93Q117 748 131 743T154 730T164 710T167 685V531ZM103 599Q98 597 93 594T84 586Q79 581 77 576T75 559V534Q75 515 88 515Q103 515 103 536V599Z" />
<glyph unicode="&#xab;" glyph-name="guillemotleft" horiz-adv-x="249" d="M139 123H61L14 259V313L61 447H139L91 286L139 123ZM240 123H161L115 286L161 447H241L198 286L240 123Z" />
<glyph unicode="&#xae;" glyph-name="registered" horiz-adv-x="267" d="M132 403Q77 403 45 437T13 530V627Q13 680 44 715T132 750H139Q194 750 224 716T254 627V530Q254 473 222 438T138 403H132ZM133 438H138Q181 438 197 467T214 537V621Q214 639 211 656T199
685T176 706T139 715H133Q88 714 70 689T52 617V537Q52 517 56 499T69 468T94 446T133 438ZM126 470H81V689H149Q187 689 187 650V616Q187 595 169 587Q180 584 183 577T187 560V495Q187 486 188 482T191 474V470H147Q144 476 144 490V551Q144 559 143 561T134
564H126V470ZM126 600H135Q140 600 142 602T144 613V642Q144 654 135 654H126V600Z" />
<glyph unicode="&#xaf;" glyph-name="macron" horiz-adv-x="342" d="M85 656H257V579H85V656Z" />
<glyph unicode="&#xb0;" glyph-name="degree" horiz-adv-x="209" d="M6 650Q6 693 34 719T105 746Q148 746 175 720T203 650Q203 606 176 580T105 553Q62 553 34 579T6 650ZM67 650Q67 633 77 623T104 612Q121 612 131 622T141 650Q141 667 131 677T104 688Q87
688 77 678T67 650Z" />
<glyph unicode="&#xb4;" glyph-name="acute" horiz-adv-x="342" d="M145 697H235L195 567H107L145 697Z" />
<glyph unicode="&#xb6;" glyph-name="paragraph" horiz-adv-x="349" d="M118 744H345V660H308V0H232V660H198V0H123V341H118Q63 341 39 368T15 455V637Q15 692 39 718T118 744Z" />
<glyph unicode="&#xb7;" glyph-name="periodcentered" horiz-adv-x="137" d="M121 253H16V381H121V253Z" />
<glyph unicode="&#xb8;" glyph-name="cedilla" horiz-adv-x="342" d="M153 -188H98V-128H136Q160 -128 160 -110Q160 -91 136 -91H113V0H168V-40Q203 -40 224 -57T245 -111V-114Q245 -152 218 -170T153 -188Z" />
<glyph unicode="&#xba;" glyph-name="ordmasculine" horiz-adv-x="195" d="M89 456Q51 456 32 478T12 541V661Q12 705 32 726T89 748H105Q141 748 162 727T183 664V541Q183 503 164 480T105 456H89ZM81 541Q81 520 97 520Q113 520 113 541V668Q113 689 97 689Q81
689 81 668V541Z" />
<glyph unicode="&#xbb;" glyph-name="guillemotright" horiz-adv-x="249" d="M159 286L109 447H189L235 311V259L187 123H109L159 286ZM51 286L8 447H87L134 286L87 123H8L51 286Z" />
<glyph unicode="&#xbc;" glyph-name="onequarter" horiz-adv-x="354" d="M7 647V703Q24 703 34 706T50 716T58 729T63 744H123V405H51V647H7ZM335 744L83 0H9L262 744H335ZM160 110Q168 129 180 158T204 220T229 285T249 340H318V125H347V63H318V0H249V63H160V110ZM249
125V221Q247 213 243 200T233 173T223 146T215 125H249Z" />
<glyph unicode="&#xbd;" glyph-name="onehalf" horiz-adv-x="399" d="M335 744L83 0H9L262 744H335ZM7 647V703Q24 703 34 706T50 716T58 729T63 744H123V405H51V647H7ZM200 0V38Q200 52 203 64T214 91T237 125T276 175Q285 185 290 193T299 209T303 225T304 245V264Q304
284 289 284Q274 284 274 265V205H206V267Q206 302 222 323T282 345H297Q345 345 362 324T380 269V248Q380 230 377 216T368 188T350 161T324 131Q304 110 293 98T276 80T270 69T269 60H325V116H390V0H200Z" />
<glyph unicode="&#xbe;" glyph-name="threequarters" horiz-adv-x="400" d="M381 744L129 0H55L308 744H381ZM13 629V666Q13 707 29 728T91 750H103Q145 750 163 731T181 670V642Q181 618 173 607T156 590Q168 584 177 574T187 541V477Q187 442 168 420T106 398H92Q68
398 53 404T28 420T16 444T12 473V527H82V478Q82 458 97 458Q105 458 107 463T110 478V527Q110 538 107 542T94 547H61V611H92Q102 611 106 615T110 631V669Q110 681 107 686T95 691Q86 691 83 686T80 669V629H13ZM206 110Q214 129 226 158T250 220T275 285T295
340H364V125H393V63H364V0H295V63H206V110ZM295 125V221Q293 213 289 200T279 173T269 146T261 125H295Z" />
<glyph unicode="&#xbf;" glyph-name="questiondown" horiz-adv-x="296" d="M207 385V265Q207 241 206 225T202 194T192 166T173 131L144 82Q136 69 132 58T126 35T123 12T122 -15V-69Q122 -90 127 -99T150 -108Q167 -108 172 -99T177 -69V51H283V-69Q283 -100
278 -127T260 -173T223 -204T161 -215H139Q101 -215 76 -206T36 -178T15 -135T8 -76V-2Q8 17 10 33T18 65T31 97T53 132L85 178Q96 194 102 206T112 232T117 260T118 298V385H207ZM111 538H213V410H111V538Z" />
<glyph unicode="&#xc0;" glyph-name="Agrave" horiz-adv-x="320" d="M197 140H114L100 0H-1L90 744H224L321 0H212L197 140ZM126 251H185L155 526L126 251ZM368 773L324 882H418L460 773H368Z" />
<glyph unicode="&#xc1;" glyph-name="Aacute" horiz-adv-x="320" d="M197 140H114L100 0H-1L90 744H224L321 0H212L197 140ZM126 251H185L155 526L126 251ZM153 882H247L203 773H111L153 882Z" />
<glyph unicode="&#xc2;" glyph-name="Acircumflex" horiz-adv-x="320" d="M197 140H114L100 0H-1L90 744H224L321 0H212L197 140ZM126 251H185L155 526L126 251ZM520 773H439L412 821L385 773H305L368 882H457L520 773Z" />
<glyph unicode="&#xc3;" glyph-name="Atilde" horiz-adv-x="320" d="M197 140H114L100 0H-1L90 744H224L321 0H212L197 140ZM126 251H185L155 526L126 251ZM510 832Q510 806 499 791T468 775H467Q453 775 440 779T410 792Q402 796 397 798T387 801Q380 801 380
792V773H316V820Q316 849 327 862T359 876H360Q373 876 384 873T414 860Q423 855 429 852T440 849Q446 849 446 858V878H510V832Z" />
<glyph unicode="&#xc4;" glyph-name="Adieresis" horiz-adv-x="320" d="M197 140H114L100 0H-1L90 744H224L321 0H212L197 140ZM126 251H185L155 526L126 251ZM399 773H309V872H399V773ZM515 773H425V872H515V773Z" />
<glyph unicode="&#xc5;" glyph-name="Aring" horiz-adv-x="320" d="M197 140H114L100 0H-1L90 744H224L321 0H212L197 140ZM126 251H185L155 526L126 251ZM413 813Q427 813 435 822T444 846Q444 860 436 869T413 879Q399 879 391 870T382 846Q382 831 390 822T413
813ZM492 847Q492 812 470 789T413 766Q378 766 356 789T333 847Q333 880 356 903T413 926Q448 926 470 903T492 847Z" />
<glyph unicode="&#xc6;" glyph-name="AE" horiz-adv-x="486" d="M216 0V144H130L104 0H-4L137 744H469V636H329V441H439V328H329V113H476V0H216ZM216 254V620L150 254H216Z" />
<glyph unicode="&#xc7;" glyph-name="Ccedilla" horiz-adv-x="336" d="M208 151V324H319V152Q319 122 313 93T292 42T251 5T184 -9H159Q116 -9 89 5T47 41T26 92T20 148V602Q20 630 26 657T49 705T91 738T155 751H181Q227 751 254 737T296 701T315 651T319 596V463H208V594Q208
618 200 630T170 643Q149 643 142 631T135 594V152Q135 101 171 101Q191 101 199 114T208 151ZM154 -188H99V-128H137Q161 -128 161 -110Q161 -91 137 -91H114V0H169V-40Q204 -40 225 -57T246 -111V-114Q246 -152 219 -170T154 -188Z" />
<glyph unicode="&#xc8;" glyph-name="Egrave" horiz-adv-x="296" d="M280 744V636H136V441H249V328H136V113H286V0H23V744H280ZM368 773L324 882H418L460 773H368Z" />
<glyph unicode="&#xc9;" glyph-name="Eacute" horiz-adv-x="296" d="M280 744V636H136V441H249V328H136V113H286V0H23V744H280ZM150 882H244L200 773H108L150 882Z" />
<glyph unicode="&#xca;" glyph-name="Ecircumflex" horiz-adv-x="296" d="M280 744V636H136V441H249V328H136V113H286V0H23V744H280ZM517 773H436L409 821L382 773H302L365 882H454L517 773Z" />
<glyph unicode="&#xcb;" glyph-name="Edieresis" horiz-adv-x="296" d="M280 744V636H136V441H249V328H136V113H286V0H23V744H280ZM396 773H306V872H396V773ZM512 773H422V872H512V773Z" />
<glyph unicode="&#xcc;" glyph-name="Igrave" horiz-adv-x="159" d="M136 0H23V744H136V0ZM289 773L245 882H339L381 773H289Z" />
<glyph unicode="&#xcd;" glyph-name="Iacute" horiz-adv-x="159" d="M136 0H23V744H136V0ZM332 882H426L382 773H290L332 882Z" />
<glyph unicode="&#xce;" glyph-name="Icircumflex" horiz-adv-x="159" d="M136 0H23V744H136V0ZM443 773H362L335 821L308 773H228L291 882H380L443 773Z" />
<glyph unicode="&#xcf;" glyph-name="Idieresis" horiz-adv-x="159" d="M136 0H23V744H136V0ZM322 773H232V872H322V773ZM438 773H348V872H438V773Z" />
<glyph unicode="&#xd0;" glyph-name="Eth" horiz-adv-x="346" d="M25 744H198Q234 744 258 734T298 706T319 661T325 601V148Q325 79 297 40T198 0H25V335H-2V430H25V744ZM138 108H165Q191 108 200 122T209 166V585Q209 617 200 630T170 643H138V430H184V335H138V108Z" />
<glyph unicode="&#xd1;" glyph-name="Ntilde" horiz-adv-x="348" d="M125 744L222 345V744H325V0H233L125 428V0H23V744H125ZM276 832Q276 806 265 791T234 775H233Q219 775 206 779T176 792Q168 796 163 798T153 801Q146 801 146 792V773H82V820Q82 849 93 862T125
876H126Q139 876 150 873T180 860Q189 855 195 852T206 849Q212 849 212 858V878H276V832Z" />
<glyph unicode="&#xd2;" glyph-name="Ograve" horiz-adv-x="349" d="M329 166Q329 127 322 95T298 40T254 4T185 -9H166Q125 -9 98 3T53 39T28 95T20 166V580Q20 619 27 650T52 704T97 739T165 751H184Q225 751 253 739T298 705T322 651T329 581V166ZM214 586Q214
643 175 643Q153 643 144 629T135 586V158Q135 134 143 118T176 101Q199 101 206 117T214 158V586ZM384 773L340 882H434L476 773H384Z" />
<glyph unicode="&#xd3;" glyph-name="Oacute" horiz-adv-x="349" d="M329 166Q329 127 322 95T298 40T254 4T185 -9H166Q125 -9 98 3T53 39T28 95T20 166V580Q20 619 27 650T52 704T97 739T165 751H184Q225 751 253 739T298 705T322 651T329 581V166ZM214 586Q214
643 175 643Q153 643 144 629T135 586V158Q135 134 143 118T176 101Q199 101 206 117T214 158V586ZM171 882H265L221 773H129L171 882Z" />
<glyph unicode="&#xd4;" glyph-name="Ocircumflex" horiz-adv-x="349" d="M329 166Q329 127 322 95T298 40T254 4T185 -9H166Q125 -9 98 3T53 39T28 95T20 166V580Q20 619 27 650T52 704T97 739T165 751H184Q225 751 253 739T298 705T322 651T329 581V166ZM214
586Q214 643 175 643Q153 643 144 629T135 586V158Q135 134 143 118T176 101Q199 101 206 117T214 158V586ZM282 773H201L174 821L147 773H67L130 882H219L282 773Z" />
<glyph unicode="&#xd5;" glyph-name="Otilde" horiz-adv-x="349" d="M329 166Q329 127 322 95T298 40T254 4T185 -9H166Q125 -9 98 3T53 39T28 95T20 166V580Q20 619 27 650T52 704T97 739T165 751H184Q225 751 253 739T298 705T322 651T329 581V166ZM214 586Q214
643 175 643Q153 643 144 629T135 586V158Q135 134 143 118T176 101Q199 101 206 117T214 158V586ZM272 832Q272 806 261 791T230 775H229Q215 775 202 779T172 792Q164 796 159 798T149 801Q142 801 142 792V773H78V820Q78 849 89 862T121 876H122Q135 876 146
873T176 860Q185 855 191 852T202 849Q208 849 208 858V878H272V832Z" />
<glyph unicode="&#xd6;" glyph-name="Odieresis" horiz-adv-x="349" d="M329 166Q329 127 322 95T298 40T254 4T185 -9H166Q125 -9 98 3T53 39T28 95T20 166V580Q20 619 27 650T52 704T97 739T165 751H184Q225 751 253 739T298 705T322 651T329 581V166ZM214 586Q214
643 175 643Q153 643 144 629T135 586V158Q135 134 143 118T176 101Q199 101 206 117T214 158V586ZM161 773H71V872H161V773ZM277 773H187V872H277V773Z" />
<glyph unicode="&#xd7;" glyph-name="multiply" horiz-adv-x="301" d="M149 242L64 153L6 207L93 299L5 389L65 452L152 362L237 452L296 396L208 304L296 213L237 153L149 242Z" />
<glyph unicode="&#xd8;" glyph-name="Oslash" horiz-adv-x="349" d="M330 152Q330 118 321 89T293 37T249 3T187 -10H166Q131 -10 110 2T78 25L67 0H-1L30 81Q24 95 22 113T19 152V581Q19 619 26 650T51 704T96 739T163 751H186Q219 751 239 742T273 720L282 744H350L319
661Q330 626 330 582V152ZM175 641Q149 641 140 627T131 585V328L219 584V586Q219 641 175 641ZM175 105Q202 105 210 120T219 154V415L131 161V153Q131 136 140 121T175 105Z" />
<glyph unicode="&#xd9;" glyph-name="Ugrave" horiz-adv-x="345" d="M21 744H136V155Q136 131 144 117T172 102Q192 102 200 116T209 155V744H324V162Q324 83 291 37T182 -9H162Q87 -9 54 36T21 162V744ZM384 773L340 882H434L476 773H384Z" />
<glyph unicode="&#xda;" glyph-name="Uacute" horiz-adv-x="345" d="M21 744H136V155Q136 131 144 117T172 102Q192 102 200 116T209 155V744H324V162Q324 83 291 37T182 -9H162Q87 -9 54 36T21 162V744ZM169 882H263L219 773H127L169 882Z" />
<glyph unicode="&#xdb;" glyph-name="Ucircumflex" horiz-adv-x="345" d="M21 744H136V155Q136 131 144 117T172 102Q192 102 200 116T209 155V744H324V162Q324 83 291 37T182 -9H162Q87 -9 54 36T21 162V744ZM280 773H199L172 821L145 773H65L128 882H217L280 773Z" />
<glyph unicode="&#xdc;" glyph-name="Udieresis" horiz-adv-x="345" d="M21 744H136V155Q136 131 144 117T172 102Q192 102 200 116T209 155V744H324V162Q324 83 291 37T182 -9H162Q87 -9 54 36T21 162V744ZM159 773H69V872H159V773ZM275 773H185V872H275V773Z" />
<glyph unicode="&#xdd;" glyph-name="Yacute" horiz-adv-x="306" d="M211 309V0H98V310L-4 744H106L158 466L208 744H310L211 309ZM153 882H247L203 773H111L153 882Z" />
<glyph unicode="&#xde;" glyph-name="Thorn" horiz-adv-x="338" d="M136 191V0H23V744H136V592H207Q263 592 293 564T324 468V327Q324 191 208 191H136ZM136 290H170Q196 290 202 305T209 344V442Q209 464 203 478T170 493H136V290Z" />
<glyph unicode="&#xdf;" glyph-name="germandbls" horiz-adv-x="312" d="M245 442Q255 438 264 433T280 417T292 391T297 351V126Q297 94 292 71T274 32T238 8T178 0H146V107H165Q188 107 188 136V328Q188 342 184 349T165 357H146V462H163Q174 462 179 469T185
496V613Q185 630 180 640T158 651H153Q139 651 133 641T127 614V0H20V624Q20 682 50 714T141 746H169Q232 746 260 716T288 619V517Q288 483 275 467T245 442Z" />
<glyph unicode="&#xe0;" glyph-name="agrave" horiz-adv-x="310" d="M15 207Q15 247 26 272T66 315Q75 321 88 328T116 341T141 354T159 363Q167 368 169 371T172 386V420Q172 440 166 447T146 455H144Q128 455 123 447T117 421V364H21V440Q21 455 24 473T39 506T73
531T134 542H154Q193 542 216 534T253 510T270 476T275 436V116Q275 106 278 103T292 99H311V0H209Q192 0 183 13T174 61Q169 52 162 41T143 20T117 4T86 -3H83Q67 -3 55 4T33 23T20 50T15 81V207ZM172 272Q163 267 153 260T134 245Q126 237 123 228T120 202V128Q120
93 145 93Q172 93 172 133V272ZM355 567L316 697H407L444 567H355Z" />
<glyph unicode="&#xe1;" glyph-name="aacute" horiz-adv-x="310" d="M15 207Q15 247 26 272T66 315Q75 321 88 328T116 341T141 354T159 363Q167 368 169 371T172 386V420Q172 440 166 447T146 455H144Q128 455 123 447T117 421V364H21V440Q21 455 24 473T39 506T73
531T134 542H154Q193 542 216 534T253 510T270 476T275 436V116Q275 106 278 103T292 99H311V0H209Q192 0 183 13T174 61Q169 52 162 41T143 20T117 4T86 -3H83Q67 -3 55 4T33 23T20 50T15 81V207ZM172 272Q163 267 153 260T134 245Q126 237 123 228T120 202V128Q120
93 145 93Q172 93 172 133V272ZM395 697H485L445 567H357L395 697Z" />
<glyph unicode="&#xe2;" glyph-name="acircumflex" horiz-adv-x="310" d="M15 207Q15 247 26 272T66 315Q75 321 88 328T116 341T141 354T159 363Q167 368 169 371T172 386V420Q172 440 166 447T146 455H144Q128 455 123 447T117 421V364H21V440Q21 455 24 473T39
506T73 531T134 542H154Q193 542 216 534T253 510T270 476T275 436V116Q275 106 278 103T292 99H311V0H209Q192 0 183 13T174 61Q169 52 162 41T143 20T117 4T86 -3H83Q67 -3 55 4T33 23T20 50T15 81V207ZM172 272Q163 267 153 260T134 245Q126 237 123 228T120
202V128Q120 93 145 93Q172 93 172 133V272ZM504 567H425L400 632L375 567H298L355 698H447L504 567Z" />
<glyph unicode="&#xe3;" glyph-name="atilde" horiz-adv-x="310" d="M15 207Q15 247 26 272T66 315Q75 321 88 328T116 341T141 354T159 363Q167 368 169 371T172 386V420Q172 440 166 447T146 455H144Q128 455 123 447T117 421V364H21V440Q21 455 24 473T39 506T73
531T134 542H154Q193 542 216 534T253 510T270 476T275 436V116Q275 106 278 103T292 99H311V0H209Q192 0 183 13T174 61Q169 52 162 41T143 20T117 4T86 -3H83Q67 -3 55 4T33 23T20 50T15 81V207ZM172 272Q163 267 153 260T134 245Q126 237 123 228T120 202V128Q120
93 145 93Q172 93 172 133V272ZM498 672V626Q498 600 487 585T456 569H455Q441 569 428 573T398 586Q390 590 385 592T375 595Q368 595 368 586V567H304V614Q304 643 315 656T347 670H348Q361 670 372 667T402 654Q411 649 417 646T428 643Q434 643 434 652V672H498Z"
/>
<glyph unicode="&#xe4;" glyph-name="adieresis" horiz-adv-x="310" d="M15 207Q15 247 26 272T66 315Q75 321 88 328T116 341T141 354T159 363Q167 368 169 371T172 386V420Q172 440 166 447T146 455H144Q128 455 123 447T117 421V364H21V440Q21 455 24 473T39
506T73 531T134 542H154Q193 542 216 534T253 510T270 476T275 436V116Q275 106 278 103T292 99H311V0H209Q192 0 183 13T174 61Q169 52 162 41T143 20T117 4T86 -3H83Q67 -3 55 4T33 23T20 50T15 81V207ZM172 272Q163 267 153 260T134 245Q126 237 123 228T120
202V128Q120 93 145 93Q172 93 172 133V272ZM389 567H300V665H389V567ZM502 567H413V665H502V567Z" />
<glyph unicode="&#xe5;" glyph-name="aring" horiz-adv-x="310" d="M15 207Q15 247 26 272T66 315Q75 321 88 328T116 341T141 354T159 363Q167 368 169 371T172 386V420Q172 440 166 447T146 455H144Q128 455 123 447T117 421V364H21V440Q21 455 24 473T39 506T73
531T134 542H154Q193 542 216 534T253 510T270 476T275 436V116Q275 106 278 103T292 99H311V0H209Q192 0 183 13T174 61Q169 52 162 41T143 20T117 4T86 -3H83Q67 -3 55 4T33 23T20 50T15 81V207ZM172 272Q163 267 153 260T134 245Q126 237 123 228T120 202V128Q120
93 145 93Q172 93 172 133V272ZM401 563Q366 563 344 586T321 644Q321 677 344 700T401 723Q436 723 458 700T480 644Q480 609 458 586T401 563ZM401 610Q415 610 423 619T432 643Q432 657 424 666T401 676Q387 676 379 667T370 643Q370 628 378 619T401 610Z"
/>
<glyph unicode="&#xe6;" glyph-name="ae" horiz-adv-x="450" d="M181 59Q169 38 146 18T88 -3H85Q68 -3 55 4T33 23T20 50T15 81V185Q15 225 26 250T66 293Q75 299 88 306T116 319T141 332T159 341Q167 346 169 349T172 364V422Q172 442 166 449T146 457H144Q128
457 123 449T117 423V342H21V442Q21 457 24 475T39 508T73 533T134 544H152Q173 544 186 541T208 532T221 523T227 515Q231 521 248 533T300 546H317Q379 546 406 512T434 412V253H275V133Q275 115 281 104T304 93Q318 93 324 104T331 132V217H434V128Q434 90 424
64T398 22T359 -2T313 -9H296Q264 -9 244 -2T211 15T191 37T181 59ZM172 250Q163 245 153 238T134 223Q126 215 123 206T120 180V128Q120 93 145 93Q172 93 172 133V250ZM275 347H334V414Q334 431 329 443T305 456Q285 456 280 444T275 414V347Z" />
<glyph unicode="&#xe7;" glyph-name="ccedilla" horiz-adv-x="297" d="M282 241V120Q282 97 276 74T255 33T218 3T161 -9H141Q109 -9 86 1T47 29T25 70T17 121V414Q17 477 48 511T145 546H164Q197 546 220 537T256 512T276 475T282 429V333H179V406Q179 426 175
438T152 451Q134 451 130 439T125 407V132Q125 113 130 102T151 91Q167 91 173 102T179 131V241H282ZM391 -188H336V-128H374Q398 -128 398 -110Q398 -91 374 -91H351V0H406V-40Q441 -40 462 -57T483 -111V-114Q483 -152 456 -170T391 -188Z" />
<glyph unicode="&#xe8;" glyph-name="egrave" horiz-adv-x="295" d="M159 545Q222 545 250 511T279 411V256H120V132Q120 114 126 103T149 92Q163 92 169 103T176 131V220H279V126Q279 54 245 22T154 -10H135Q81 -10 49 23T17 125V416Q17 471 45 508T139 545H159ZM120
344H179V412Q179 430 174 442T150 455Q130 455 125 443T120 412V344ZM360 567L321 697H412L449 567H360Z" />
<glyph unicode="&#xe9;" glyph-name="eacute" horiz-adv-x="295" d="M159 545Q222 545 250 511T279 411V256H120V132Q120 114 126 103T149 92Q163 92 169 103T176 131V220H279V126Q279 54 245 22T154 -10H135Q81 -10 49 23T17 125V416Q17 471 45 508T139 545H159ZM120
344H179V412Q179 430 174 442T150 455Q130 455 125 443T120 412V344ZM399 697H489L449 567H361L399 697Z" />
<glyph unicode="&#xea;" glyph-name="ecircumflex" horiz-adv-x="295" d="M159 545Q222 545 250 511T279 411V256H120V132Q120 114 126 103T149 92Q163 92 169 103T176 131V220H279V126Q279 54 245 22T154 -10H135Q81 -10 49 23T17 125V416Q17 471 45 508T139
545H159ZM120 344H179V412Q179 430 174 442T150 455Q130 455 125 443T120 412V344ZM508 567H429L404 632L379 567H302L359 698H451L508 567Z" />
<glyph unicode="&#xeb;" glyph-name="edieresis" horiz-adv-x="295" d="M159 545Q222 545 250 511T279 411V256H120V132Q120 114 126 103T149 92Q163 92 169 103T176 131V220H279V126Q279 54 245 22T154 -10H135Q81 -10 49 23T17 125V416Q17 471 45 508T139 545H159ZM120
344H179V412Q179 430 174 442T150 455Q130 455 125 443T120 412V344ZM393 567H304V665H393V567ZM506 567H417V665H506V567Z" />
<glyph unicode="&#xec;" glyph-name="igrave" horiz-adv-x="147" d="M127 0H20V538H127V0ZM283 567L244 697H335L372 567H283Z" />
<glyph unicode="&#xed;" glyph-name="iacute" horiz-adv-x="147" d="M127 0H20V538H127V0ZM325 697H415L375 567H287L325 697Z" />
<glyph unicode="&#xee;" glyph-name="icircumflex" horiz-adv-x="147" d="M168 565H95L74 630L52 565H-19L28 696H120L168 565ZM127 0H20V538H127V0Z" />
<glyph unicode="&#xef;" glyph-name="idieresis" horiz-adv-x="147" d="M63 567H-20V665H63V567ZM167 567H84V665H167V567ZM127 0H20V538H127V0Z" />
<glyph unicode="&#xf0;" glyph-name="eth" horiz-adv-x="314" d="M53 629L102 654L60 744H169L191 699L262 736V658L221 637L256 566Q266 544 274 526T287 489T294 447T297 393V130Q297 70 264 31T169 -9H146Q112 -9 88 2T49 33T26 77T19 131V438Q19 489 40 514T94
540H96Q121 540 140 528T177 492L131 591L53 552V629ZM187 407Q187 427 181 438T157 449Q127 449 127 407V135Q127 118 133 106T157 93Q175 93 181 106T187 135V407Z" />
<glyph unicode="&#xf1;" glyph-name="ntilde" horiz-adv-x="313" d="M20 538H125V475Q131 486 140 498T160 519T186 535T216 541H221Q242 541 255 533T277 513T289 486T293 458V0H185V403Q185 422 179 432T157 443Q140 443 134 432T127 399V0H20V538ZM509 672V626Q509
600 498 585T467 569H466Q452 569 439 573T409 586Q401 590 396 592T386 595Q379 595 379 586V567H315V614Q315 643 326 656T358 670H359Q372 670 383 667T413 654Q422 649 428 646T439 643Q445 643 445 652V672H509Z" />
<glyph unicode="&#xf2;" glyph-name="ograve" horiz-adv-x="310" d="M17 130V407Q17 474 50 510T145 546H165Q225 546 259 512T293 411V130Q293 103 285 78T260 34T220 3T165 -9H145Q110 -9 86 2T46 33T24 78T17 130ZM125 406V135Q125 115 132 104T155 93Q171
93 178 105T185 135V406Q185 429 177 438T155 447Q141 447 133 438T125 406ZM365 567L326 697H417L454 567H365Z" />
<glyph unicode="&#xf3;" glyph-name="oacute" horiz-adv-x="310" d="M17 130V407Q17 474 50 510T145 546H165Q225 546 259 512T293 411V130Q293 103 285 78T260 34T220 3T165 -9H145Q110 -9 86 2T46 33T24 78T17 130ZM125 406V135Q125 115 132 104T155 93Q171
93 178 105T185 135V406Q185 429 177 438T155 447Q141 447 133 438T125 406ZM148 697H238L198 567H110L148 697Z" />
<glyph unicode="&#xf4;" glyph-name="ocircumflex" horiz-adv-x="310" d="M17 130V407Q17 474 50 510T145 546H165Q225 546 259 512T293 411V130Q293 103 285 78T260 34T220 3T165 -9H145Q110 -9 86 2T46 33T24 78T17 130ZM125 406V135Q125 115 132 104T155 93Q171
93 178 105T185 135V406Q185 429 177 438T155 447Q141 447 133 438T125 406ZM514 567H435L410 632L385 567H308L365 698H457L514 567Z" />
<glyph unicode="&#xf5;" glyph-name="otilde" horiz-adv-x="310" d="M17 130V407Q17 474 50 510T145 546H165Q225 546 259 512T293 411V130Q293 103 285 78T260 34T220 3T165 -9H145Q110 -9 86 2T46 33T24 78T17 130ZM125 406V135Q125 115 132 104T155 93Q171
93 178 105T185 135V406Q185 429 177 438T155 447Q141 447 133 438T125 406ZM508 672V626Q508 600 497 585T466 569H465Q451 569 438 573T408 586Q400 590 395 592T385 595Q378 595 378 586V567H314V614Q314 643 325 656T357 670H358Q371 670 382 667T412 654Q421
649 427 646T438 643Q444 643 444 652V672H508Z" />
<glyph unicode="&#xf6;" glyph-name="odieresis" horiz-adv-x="310" d="M17 130V407Q17 474 50 510T145 546H165Q225 546 259 512T293 411V130Q293 103 285 78T260 34T220 3T165 -9H145Q110 -9 86 2T46 33T24 78T17 130ZM125 406V135Q125 115 132 104T155 93Q171
93 178 105T185 135V406Q185 429 177 438T155 447Q141 447 133 438T125 406ZM399 567H310V665H399V567ZM512 567H423V665H512V567Z" />
<glyph unicode="&#xf7;" glyph-name="divide" horiz-adv-x="343" d="M327 345V260H16V345H327ZM221 379H122V476H221V379ZM221 124H122V222H221V124Z" />
<glyph unicode="&#xf8;" glyph-name="oslash" horiz-adv-x="306" d="M17 130V407Q17 474 49 510T142 546H164Q190 546 210 539T245 517L255 538H316L282 463Q289 441 289 411V130Q289 103 281 78T257 34T218 3T164 -9H142Q113 -9 94 -1T62 22L52 0H-9L25 74Q20
87 19 101T17 130ZM186 406Q186 429 178 438T153 447Q137 447 129 438T120 406V252L186 402V406ZM153 93Q171 93 178 105T186 135V281L120 134Q120 115 128 104T153 93Z" />
<glyph unicode="&#xf9;" glyph-name="ugrave" horiz-adv-x="307" d="M287 0H184V64Q177 53 169 42T149 20T125 4T93 -2H91Q75 -2 62 5T40 26T25 55T20 89V538H127V135Q127 120 132 110T152 99Q169 99 174 110T180 138V538H287V0ZM367 567L328 697H419L456 567H367Z" />
<glyph unicode="&#xfa;" glyph-name="uacute" horiz-adv-x="307" d="M287 0H184V64Q177 53 169 42T149 20T125 4T93 -2H91Q75 -2 62 5T40 26T25 55T20 89V538H127V135Q127 120 132 110T152 99Q169 99 174 110T180 138V538H287V0ZM146 697H236L196 567H108L146 697Z" />
<glyph unicode="&#xfb;" glyph-name="ucircumflex" horiz-adv-x="307" d="M287 0H184V64Q177 53 169 42T149 20T125 4T93 -2H91Q75 -2 62 5T40 26T25 55T20 89V538H127V135Q127 120 132 110T152 99Q169 99 174 110T180 138V538H287V0ZM512 567H433L408 632L383
567H306L363 698H455L512 567Z" />
<glyph unicode="&#xfc;" glyph-name="udieresis" horiz-adv-x="307" d="M287 0H184V64Q177 53 169 42T149 20T125 4T93 -2H91Q75 -2 62 5T40 26T25 55T20 89V538H127V135Q127 120 132 110T152 99Q169 99 174 110T180 138V538H287V0ZM397 567H308V665H397V567ZM510
567H421V665H510V567Z" />
<glyph unicode="&#xfd;" glyph-name="yacute" horiz-adv-x="285" d="M-1 538H103L145 209L185 538H287L179 -108Q172 -148 157 -168T113 -188H12V-86H58Q72 -86 76 -80T82 -59L85 -36Q87 -19 86 -9T83 16L-1 538ZM395 697H485L445 567H357L395 697Z" />
<glyph unicode="&#xfe;" glyph-name="thorn" horiz-adv-x="313" d="M127 744V481Q132 489 140 499T158 519T183 534T214 541H215Q256 541 275 512T294 440V102Q294 49 270 23T212 -4H210Q181 -4 161 13T127 47V-188H20V744H127ZM127 128Q127 107 136 97T157 87Q172
87 178 97T185 126V407Q185 446 157 446Q143 446 135 436T127 407V128Z" />
<glyph unicode="&#xff;" glyph-name="ydieresis" horiz-adv-x="285" d="M-1 538H103L145 209L185 538H287L179 -108Q172 -148 157 -168T113 -188H12V-86H58Q72 -86 76 -80T82 -59L85 -36Q87 -19 86 -9T83 16L-1 538ZM388 567H299V665H388V567ZM501 567H412V665H501V567Z" />
<glyph unicode="&#x100;" glyph-name="Amacron" horiz-adv-x="320" d="M197 140H114L100 0H-1L90 744H224L321 0H212L197 140ZM126 251H185L155 526L126 251ZM326 859H499V780H326V859Z" />
<glyph unicode="&#x101;" glyph-name="amacron" horiz-adv-x="310" d="M15 207Q15 247 26 272T66 315Q75 321 88 328T116 341T141 354T159 363Q167 368 169 371T172 386V420Q172 440 166 447T146 455H144Q128 455 123 447T117 421V364H21V440Q21 455 24 473T39
506T73 531T134 542H154Q193 542 216 534T253 510T270 476T275 436V116Q275 106 278 103T292 99H311V0H209Q192 0 183 13T174 61Q169 52 162 41T143 20T117 4T86 -3H83Q67 -3 55 4T33 23T20 50T15 81V207ZM172 272Q163 267 153 260T134 245Q126 237 123 228T120
202V128Q120 93 145 93Q172 93 172 133V272ZM315 656H487V579H315V656Z" />
<glyph unicode="&#x102;" glyph-name="Abreve" horiz-adv-x="320" d="M197 140H114L100 0H-1L90 744H224L321 0H212L197 140ZM126 251H185L155 526L126 251ZM414 770H411Q369 770 341 794T312 864V870H389V866Q389 839 412 839H413Q424 839 430 846T437 866V870H513V864Q513
818 483 794T414 770Z" />
<glyph unicode="&#x103;" glyph-name="abreve" horiz-adv-x="310" d="M15 207Q15 247 26 272T66 315Q75 321 88 328T116 341T141 354T159 363Q167 368 169 371T172 386V420Q172 440 166 447T146 455H144Q128 455 123 447T117 421V364H21V440Q21 455 24 473T39
506T73 531T134 542H154Q193 542 216 534T253 510T270 476T275 436V116Q275 106 278 103T292 99H311V0H209Q192 0 183 13T174 61Q169 52 162 41T143 20T117 4T86 -3H83Q67 -3 55 4T33 23T20 50T15 81V207ZM172 272Q163 267 153 260T134 245Q126 237 123 228T120
202V128Q120 93 145 93Q172 93 172 133V272ZM402 565H399Q354 565 326 590T298 668V672H376V668Q376 634 400 634H401Q411 634 418 642T425 668V672H500V668Q500 615 472 590T402 565Z" />
<glyph unicode="&#x104;" glyph-name="Aogonek" horiz-adv-x="320" d="M197 140H114L100 0H-1L90 744H224L321 0H212L197 140ZM126 251H185L155 526L126 251ZM199 -109Q199 -81 217 -55T265 0H321Q296 -34 287 -52T278 -91V-95Q278 -116 302 -116H321V-188H271Q241
-188 220 -172T199 -124V-109Z" />
<glyph unicode="&#x105;" glyph-name="aogonek" horiz-adv-x="310" d="M15 207Q15 247 26 272T66 315Q75 321 88 328T116 341T141 354T159 363Q167 368 169 371T172 386V420Q172 440 166 447T146 455H144Q128 455 123 447T117 421V364H21V440Q21 455 24 473T39
506T73 531T134 542H154Q193 542 216 534T253 510T270 476T275 436V116Q275 106 278 103T292 99H311V0H209Q192 0 183 13T174 61Q169 52 162 41T143 20T117 4T86 -3H83Q67 -3 55 4T33 23T20 50T15 81V207ZM172 272Q163 267 153 260T134 245Q126 237 123 228T120
202V128Q120 93 145 93Q172 93 172 133V272ZM189 -109Q189 -81 207 -55T255 0H311Q286 -34 277 -52T268 -91V-95Q268 -116 292 -116H311V-188H261Q231 -188 210 -172T189 -124V-109Z" />
<glyph unicode="&#x106;" glyph-name="Cacute" horiz-adv-x="336" d="M208 151V324H319V152Q319 122 313 93T292 42T251 5T184 -9H159Q116 -9 89 5T47 41T26 92T20 148V602Q20 630 26 657T49 705T91 738T155 751H181Q227 751 254 737T296 701T315 651T319 596V463H208V594Q208
618 200 630T170 643Q149 643 142 631T135 594V152Q135 101 171 101Q191 101 199 114T208 151ZM167 882H261L217 773H125L167 882Z" />
<glyph unicode="&#x107;" glyph-name="cacute" horiz-adv-x="297" d="M282 241V120Q282 97 276 74T255 33T218 3T161 -9H141Q109 -9 86 1T47 29T25 70T17 121V414Q17 477 48 511T145 546H164Q197 546 220 537T256 512T276 475T282 429V333H179V406Q179 426 175
438T152 451Q134 451 130 439T125 407V132Q125 113 130 102T151 91Q167 91 173 102T179 131V241H282ZM146 697H236L196 567H108L146 697Z" />
<glyph unicode="&#x108;" glyph-name="Ccircumflex" horiz-adv-x="336" d="M208 151V324H319V152Q319 122 313 93T292 42T251 5T184 -9H159Q116 -9 89 5T47 41T26 92T20 148V602Q20 630 26 657T49 705T91 738T155 751H181Q227 751 254 737T296 701T315 651T319
596V463H208V594Q208 618 200 630T170 643Q149 643 142 631T135 594V152Q135 101 171 101Q191 101 199 114T208 151ZM279 773H198L171 821L144 773H64L127 882H216L279 773Z" />
<glyph unicode="&#x109;" glyph-name="ccircumflex" horiz-adv-x="297" d="M282 241V120Q282 97 276 74T255 33T218 3T161 -9H141Q109 -9 86 1T47 29T25 70T17 121V414Q17 477 48 511T145 546H164Q197 546 220 537T256 512T276 475T282 429V333H179V406Q179 426
175 438T152 451Q134 451 130 439T125 407V132Q125 113 130 102T151 91Q167 91 173 102T179 131V241H282ZM512 567H433L408 632L383 567H306L363 698H455L512 567Z" />
<glyph unicode="&#x10a;" glyph-name="Cdotaccent" horiz-adv-x="336" d="M208 151V324H319V152Q319 122 313 93T292 42T251 5T184 -9H159Q116 -9 89 5T47 41T26 92T20 148V602Q20 630 26 657T49 705T91 738T155 751H181Q227 751 254 737T296 701T315 651T319
596V463H208V594Q208 618 200 630T170 643Q149 643 142 631T135 594V152Q135 101 171 101Q191 101 199 114T208 151ZM224 773H117V888H224V773Z" />
<glyph unicode="&#x10b;" glyph-name="cdotaccent" horiz-adv-x="297" d="M282 241V120Q282 97 276 74T255 33T218 3T161 -9H141Q109 -9 86 1T47 29T25 70T17 121V414Q17 477 48 511T145 546H164Q197 546 220 537T256 512T276 475T282 429V333H179V406Q179 426
175 438T152 451Q134 451 130 439T125 407V132Q125 113 130 102T151 91Q167 91 173 102T179 131V241H282ZM461 567H354V682H461V567Z" />
<glyph unicode="&#x10c;" glyph-name="Ccaron" horiz-adv-x="336" d="M208 151V324H319V152Q319 122 313 93T292 42T251 5T184 -9H159Q116 -9 89 5T47 41T26 92T20 148V602Q20 630 26 657T49 705T91 738T155 751H181Q227 751 254 737T296 701T315 651T319 596V463H208V594Q208
618 200 630T170 643Q149 643 142 631T135 594V152Q135 101 171 101Q191 101 199 114T208 151ZM64 882H145L172 834L199 882H279L216 773H127L64 882Z" />
<glyph unicode="&#x10d;" glyph-name="ccaron" horiz-adv-x="297" d="M282 241V120Q282 97 276 74T255 33T218 3T161 -9H141Q109 -9 86 1T47 29T25 70T17 121V414Q17 477 48 511T145 546H164Q197 546 220 537T256 512T276 475T282 429V333H179V406Q179 426 175
438T152 451Q134 451 130 439T125 407V132Q125 113 130 102T151 91Q167 91 173 102T179 131V241H282ZM305 697H384L409 633L434 697H511L454 567H362L305 697Z" />
<glyph unicode="&#x10e;" glyph-name="Dcaron" horiz-adv-x="344" d="M23 744H196Q232 744 256 734T296 706T317 661T323 601V148Q323 79 295 40T196 0H23V744ZM136 108H163Q189 108 198 122T207 166V585Q207 617 198 630T168 643H136V108ZM305 882H386L413 834L440
882H520L457 773H368L305 882Z" />
<glyph unicode="&#x10f;" glyph-name="dcaron" horiz-adv-x="311" d="M291 744V0H184V61Q181 53 175 42T158 20T133 2T101 -5H100Q64 -5 42 26T19 109V437Q19 456 23 474T37 508T60 532T96 541H98Q116 541 130 535T154 519T172 499T184 481V744H291ZM184 397Q184
418 178 431T154 445Q126 445 126 402V136Q126 93 154 93Q171 93 177 105T184 142V397ZM316 744H397L385 600H309L316 744Z" />
<glyph unicode="&#x110;" glyph-name="Dcroat" horiz-adv-x="346" d="M25 744H198Q234 744 258 734T298 706T319 661T325 601V148Q325 79 297 40T198 0H25V335H-2V430H25V744ZM138 108H165Q191 108 200 122T209 166V585Q209 617 200 630T170 643H138V430H184V335H138V108Z"
/>
<glyph unicode="&#x111;" glyph-name="dcroat" horiz-adv-x="311" d="M106 663H329V592H106V663ZM291 744V0H184V61Q181 53 175 42T158 20T133 2T101 -5H100Q64 -5 42 26T19 109V437Q19 456 23 474T37 508T60 532T96 541H98Q116 541 130 535T154 519T172 499T184
481V744H291ZM184 397Q184 418 178 431T154 445Q126 445 126 402V136Q126 93 154 93Q171 93 177 105T184 142V397Z" />
<glyph unicode="&#x112;" glyph-name="Emacron" horiz-adv-x="296" d="M280 744V636H136V441H249V328H136V113H286V0H23V744H280ZM322 859H495V780H322V859Z" />
<glyph unicode="&#x113;" glyph-name="emacron" horiz-adv-x="295" d="M159 545Q222 545 250 511T279 411V256H120V132Q120 114 126 103T149 92Q163 92 169 103T176 131V220H279V126Q279 54 245 22T154 -10H135Q81 -10 49 23T17 125V416Q17 471 45 508T139 545H159ZM120
344H179V412Q179 430 174 442T150 455Q130 455 125 443T120 412V344ZM320 656H492V579H320V656Z" />
<glyph unicode="&#x114;" glyph-name="Ebreve" horiz-adv-x="296" d="M280 744V636H136V441H249V328H136V113H286V0H23V744H280ZM412 770H409Q367 770 339 794T310 864V870H387V866Q387 839 410 839H411Q422 839 428 846T435 866V870H511V864Q511 818 481 794T412 770Z" />
<glyph unicode="&#x115;" glyph-name="ebreve" horiz-adv-x="295" d="M159 545Q222 545 250 511T279 411V256H120V132Q120 114 126 103T149 92Q163 92 169 103T176 131V220H279V126Q279 54 245 22T154 -10H135Q81 -10 49 23T17 125V416Q17 471 45 508T139 545H159ZM120
344H179V412Q179 430 174 442T150 455Q130 455 125 443T120 412V344ZM407 565H404Q359 565 331 590T303 668V672H381V668Q381 634 405 634H406Q416 634 423 642T430 668V672H505V668Q505 615 477 590T407 565Z" />
<glyph unicode="&#x116;" glyph-name="Edotaccent" horiz-adv-x="296" d="M280 744V636H136V441H249V328H136V113H286V0H23V744H280ZM463 773H356V888H463V773Z" />
<glyph unicode="&#x117;" glyph-name="edotaccent" horiz-adv-x="295" d="M159 545Q222 545 250 511T279 411V256H120V132Q120 114 126 103T149 92Q163 92 169 103T176 131V220H279V126Q279 54 245 22T154 -10H135Q81 -10 49 23T17 125V416Q17 471 45 508T139
545H159ZM120 344H179V412Q179 430 174 442T150 455Q130 455 125 443T120 412V344ZM459 567H352V682H459V567Z" />
<glyph unicode="&#x118;" glyph-name="Eogonek" horiz-adv-x="296" d="M280 744V636H136V441H249V328H136V113H286V0H23V744H280ZM123 -109Q123 -81 141 -55T189 0H245Q220 -34 211 -52T202 -91V-95Q202 -116 226 -116H245V-188H195Q165 -188 144 -172T123 -124V-109Z" />
<glyph unicode="&#x119;" glyph-name="eogonek" horiz-adv-x="295" d="M228 -3Q204 -34 195 -53T186 -91V-95Q186 -116 210 -116H229V-188H179Q149 -188 128 -172T107 -124V-109Q107 -83 122 -60T162 -10H154H135Q81 -10 49 23T17 125V416Q17 471 45 508T139 545H159Q222
545 250 511T279 411V256H120V132Q120 114 126 103T149 92Q163 92 169 103T176 131V220H279V126Q279 97 274 77T261 43T244 17T228 -3ZM120 344H179V412Q179 430 174 442T150 455Q130 455 125 443T120 412V344Z" />
<glyph unicode="&#x11a;" glyph-name="Ecaron" horiz-adv-x="296" d="M280 744V636H136V441H249V328H136V113H286V0H23V744H280ZM304 882H385L412 834L439 882H519L456 773H367L304 882Z" />
<glyph unicode="&#x11b;" glyph-name="ecaron" horiz-adv-x="295" d="M159 545Q222 545 250 511T279 411V256H120V132Q120 114 126 103T149 92Q163 92 169 103T176 131V220H279V126Q279 54 245 22T154 -10H135Q81 -10 49 23T17 125V416Q17 471 45 508T139 545H159ZM120
344H179V412Q179 430 174 442T150 455Q130 455 125 443T120 412V344ZM303 697H382L407 633L432 697H509L452 567H360L303 697Z" />
<glyph unicode="&#x11c;" glyph-name="Gcircumflex" horiz-adv-x="341" d="M128 -10Q78 -10 49 29T20 126V591Q20 622 26 651T49 702T92 737T159 751H181Q226 751 253 738T294 701T312 647T316 584V508H206V592Q206 617 199 630T170 643Q135 643 135 592V157Q135
104 172 104Q194 104 204 117T214 152V338H163V452H321V0H257Q256 3 251 26T238 73Q235 64 227 50T205 22T174 0T135 -10H128ZM279 773H198L171 821L144 773H64L127 882H216L279 773Z" />
<glyph unicode="&#x11d;" glyph-name="gcircumflex" horiz-adv-x="312" d="M185 64Q173 38 152 17T97 -5Q65 -5 42 22T19 95V417Q19 476 39 508T98 541Q133 541 153 522T187 476V538H292V-87Q292 -102 289 -120T273 -155T235 -183T166 -195H142Q106 -195 83 -188T46
-167T28 -138T23 -103V-25H126V-73Q126 -88 132 -96T153 -104H157Q174 -104 179 -96T185 -73V64ZM185 407Q185 424 179 435T155 446Q140 446 134 435T127 407V134Q127 116 134 105T156 94Q170 94 177 105T185 135V407ZM514 567H435L410 632L385 567H308L365 698H457L514
567Z" />
<glyph unicode="&#x11e;" glyph-name="Gbreve" horiz-adv-x="341" d="M128 -10Q78 -10 49 29T20 126V591Q20 622 26 651T49 702T92 737T159 751H181Q226 751 253 738T294 701T312 647T316 584V508H206V592Q206 617 199 630T170 643Q135 643 135 592V157Q135 104
172 104Q194 104 204 117T214 152V338H163V452H321V0H257Q256 3 251 26T238 73Q235 64 227 50T205 22T174 0T135 -10H128ZM173 770H170Q128 770 100 794T71 864V870H148V866Q148 839 171 839H172Q183 839 189 846T196 866V870H272V864Q272 818 242 794T173 770Z"
/>
<glyph unicode="&#x11f;" glyph-name="gbreve" horiz-adv-x="312" d="M185 64Q173 38 152 17T97 -5Q65 -5 42 22T19 95V417Q19 476 39 508T98 541Q133 541 153 522T187 476V538H292V-87Q292 -102 289 -120T273 -155T235 -183T166 -195H142Q106 -195 83 -188T46
-167T28 -138T23 -103V-25H126V-73Q126 -88 132 -96T153 -104H157Q174 -104 179 -96T185 -73V64ZM185 407Q185 424 179 435T155 446Q140 446 134 435T127 407V134Q127 116 134 105T156 94Q170 94 177 105T185 135V407ZM413 565H410Q365 565 337 590T309 668V672H387V668Q387
634 411 634H412Q422 634 429 642T436 668V672H511V668Q511 615 483 590T413 565Z" />
<glyph unicode="&#x120;" glyph-name="Gdotaccent" horiz-adv-x="341" d="M128 -10Q78 -10 49 29T20 126V591Q20 622 26 651T49 702T92 737T159 751H181Q226 751 253 738T294 701T312 647T316 584V508H206V592Q206 617 199 630T170 643Q135 643 135 592V157Q135
104 172 104Q194 104 204 117T214 152V338H163V452H321V0H257Q256 3 251 26T238 73Q235 64 227 50T205 22T174 0T135 -10H128ZM224 773H117V888H224V773Z" />
<glyph unicode="&#x121;" glyph-name="gdotaccent" horiz-adv-x="312" d="M185 64Q173 38 152 17T97 -5Q65 -5 42 22T19 95V417Q19 476 39 508T98 541Q133 541 153 522T187 476V538H292V-87Q292 -102 289 -120T273 -155T235 -183T166 -195H142Q106 -195 83 -188T46
-167T28 -138T23 -103V-25H126V-73Q126 -88 132 -96T153 -104H157Q174 -104 179 -96T185 -73V64ZM185 407Q185 424 179 435T155 446Q140 446 134 435T127 407V134Q127 116 134 105T156 94Q170 94 177 105T185 135V407ZM464 567H357V682H464V567Z" />
<glyph unicode="&#x122;" glyph-name="uni0122" horiz-adv-x="341" d="M128 -10Q78 -10 49 29T20 126V591Q20 622 26 651T49 702T92 737T159 751H181Q226 751 253 738T294 701T312 647T316 584V508H206V592Q206 617 199 630T170 643Q135 643 135 592V157Q135 104
172 104Q194 104 204 117T214 152V338H163V452H321V0H257Q256 3 251 26T238 73Q235 64 227 50T205 22T174 0T135 -10H128ZM152 -196Q156 -186 160 -169T165 -131H127V-29H219V-93Q219 -135 211 -160T197 -196H152Z" />
<glyph unicode="&#x123;" glyph-name="uni0123" horiz-adv-x="312" d="M185 64Q173 38 152 17T97 -5Q65 -5 42 22T19 95V417Q19 476 39 508T98 541Q133 541 153 522T187 476V538H292V-87Q292 -102 289 -120T273 -155T235 -183T166 -195H142Q106 -195 83 -188T46
-167T28 -138T23 -103V-25H126V-73Q126 -88 132 -96T153 -104H157Q174 -104 179 -96T185 -73V64ZM185 407Q185 424 179 435T155 446Q140 446 134 435T127 407V134Q127 116 134 105T156 94Q170 94 177 105T185 135V407ZM432 734Q428 723 424 706T419 668H456V567H363V629Q363
672 370 697T383 734H432Z" />
<glyph unicode="&#x124;" glyph-name="Hcircumflex" horiz-adv-x="349" d="M136 0H23V744H136V446H213V744H326V0H213V327H136V0ZM282 773H201L174 821L147 773H67L130 882H219L282 773Z" />
<glyph unicode="&#x125;" glyph-name="hcircumflex" horiz-adv-x="313" d="M20 744H127V477Q141 501 163 521T216 541H221Q242 541 256 533T278 513T290 486T293 458V0H185V403Q185 422 179 432T157 443Q140 443 134 432T127 399V0H20V744ZM503 773H422L395 821L368
773H288L351 882H440L503 773Z" />
<glyph unicode="&#x126;" glyph-name="Hbar" horiz-adv-x="349" d="M-5 637H354V553H-5V637ZM136 0H23V744H136V446H213V744H326V0H213V327H136V0Z" />
<glyph unicode="&#x127;" glyph-name="hbar" horiz-adv-x="313" d="M-18 663H205V592H-18V663ZM20 744H127V477Q141 501 163 521T216 541H221Q242 541 256 533T278 513T290 486T293 458V0H185V403Q185 422 179 432T157 443Q140 443 134 432T127 399V0H20V744Z" />
<glyph unicode="&#x128;" glyph-name="Itilde" horiz-adv-x="159" d="M136 0H23V744H136V0ZM433 832Q433 806 422 791T391 775H390Q376 775 363 779T333 792Q325 796 320 798T310 801Q303 801 303 792V773H239V820Q239 849 250 862T282 876H283Q296 876 307 873T337
860Q346 855 352 852T363 849Q369 849 369 858V878H433V832Z" />
<glyph unicode="&#x129;" glyph-name="itilde" horiz-adv-x="147" d="M169 668V630Q169 602 158 586T126 569H125Q112 569 101 573T72 585Q63 589 59 590T51 592Q43 592 43 581V567H-18V605Q-18 634 -6 650T26 666H27Q37 666 47 663T76 652Q84 648 90 646T102
643Q108 643 108 652V668H169ZM127 0H20V538H127V0Z" />
<glyph unicode="&#x12a;" glyph-name="Imacron" horiz-adv-x="159" d="M136 0H23V744H136V0ZM249 859H422V780H249V859Z" />
<glyph unicode="&#x12b;" glyph-name="imacron" horiz-adv-x="147" d="M-5 657H152V579H-5V657ZM127 0H20V538H127V0Z" />
<glyph unicode="&#x12c;" glyph-name="Ibreve" horiz-adv-x="159" d="M136 0H23V744H136V0ZM337 770H334Q292 770 264 794T235 864V870H312V866Q312 839 335 839H336Q347 839 353 846T360 866V870H436V864Q436 818 406 794T337 770Z" />
<glyph unicode="&#x12d;" glyph-name="ibreve" horiz-adv-x="147" d="M75 565H72Q27 565 3 588T-21 653V672H55V662Q55 635 73 635H74Q92 635 92 662V672H168V653Q168 612 143 589T75 565ZM127 0H20V538H127V0Z" />
<glyph unicode="&#x12e;" glyph-name="Iogonek" horiz-adv-x="159" d="M136 0H23V744H136V0ZM270 -109Q270 -81 288 -55T336 0H392Q367 -34 358 -52T349 -91V-95Q349 -116 373 -116H392V-188H342Q312 -188 291 -172T270 -124V-109Z" />
<glyph unicode="&#x12f;" glyph-name="iogonek" horiz-adv-x="147" d="M127 0H20V538H127V0ZM127 567H20V682H127V567ZM261 -109Q261 -81 279 -55T327 0H383Q358 -34 349 -52T340 -91V-95Q340 -116 364 -116H383V-188H333Q303 -188 282 -172T261 -124V-109Z" />
<glyph unicode="&#x130;" glyph-name="Idotaccent" horiz-adv-x="159" d="M136 0H23V744H136V0ZM388 773H281V888H388V773Z" />
<glyph unicode="&#x131;" glyph-name="dotlessi" horiz-adv-x="147" d="M127 0H20V538H127V0Z" />
<glyph unicode="&#x132;" glyph-name="IJ" horiz-adv-x="474" d="M136 0H23V744H136V0ZM281 328V145Q281 125 286 115T308 104H312Q328 104 333 116T338 145V744H453V136Q453 63 419 29T325 -6H294Q267 -6 244 0T205 23T179 65T170 129V328H281Z" />
<glyph unicode="&#x133;" glyph-name="ij" horiz-adv-x="291" d="M127 0H20V538H127V0ZM127 567H20V682H127V567ZM271 567H164V682H271V567ZM143 -86Q164 -86 164 -62V538H271V-110Q271 -134 265 -149T249 -173T227 -185T202 -188H93V-86H143Z" />
<glyph unicode="&#x134;" glyph-name="Jcircumflex" horiz-adv-x="319" d="M126 328V145Q126 125 131 115T153 104H157Q173 104 178 116T183 145V744H298V136Q298 63 264 29T170 -6H139Q112 -6 89 0T50 23T24 65T15 129V328H126ZM346 773H265L238 821L211 773H131L194
882H283L346 773Z" />
<glyph unicode="&#x135;" glyph-name="jcircumflex" horiz-adv-x="148" d="M168 565H95L74 630L52 565H-19L28 696H120L168 565ZM0 -86Q21 -86 21 -62V538H128V-110Q128 -134 122 -149T106 -173T84 -185T59 -188H-50V-86H0Z" />
<glyph unicode="&#x136;" glyph-name="uni0136" horiz-adv-x="342" d="M136 0H23V744H136V446L225 744H335L230 398L346 0H230L136 323V0ZM159 -196Q163 -186 167 -169T172 -131H134V-29H226V-93Q226 -135 218 -160T204 -196H159Z" />
<glyph unicode="&#x137;" glyph-name="uni0137" horiz-adv-x="318" d="M210 538H317L216 308L324 0H213L127 249V0H20V744H127V342L210 538ZM405 -196Q409 -186 413 -169T418 -131H380V-29H472V-93Q472 -135 464 -160T450 -196H405Z" />
<glyph unicode="&#x139;" glyph-name="Lacute" horiz-adv-x="284" d="M136 744V115H274V0H23V744H136ZM332 882H426L382 773H290L332 882Z" />
<glyph unicode="&#x13a;" glyph-name="lacute" horiz-adv-x="147" d="M127 0H20V744H127V0ZM327 882H421L377 773H285L327 882Z" />
<glyph unicode="&#x13b;" glyph-name="uni013B" horiz-adv-x="284" d="M136 744V115H274V0H23V744H136ZM385 -196Q389 -186 393 -169T398 -131H360V-29H452V-93Q452 -135 444 -160T430 -196H385Z" />
<glyph unicode="&#x13c;" glyph-name="uni013C" horiz-adv-x="147" d="M127 0H20V744H127V0ZM310 -196Q314 -186 318 -169T323 -131H285V-29H377V-93Q377 -135 369 -160T355 -196H310Z" />
<glyph unicode="&#x13d;" glyph-name="Lcaron" horiz-adv-x="284" d="M161 744H242L230 600H154L161 744ZM136 744V115H274V0H23V744H136Z" />
<glyph unicode="&#x13e;" glyph-name="lcaron" horiz-adv-x="147" d="M152 744H233L221 600H145L152 744ZM127 0H20V744H127V0Z" />
<glyph unicode="&#x13f;" glyph-name="Ldot" horiz-adv-x="283" d="M272 321H167V448H272V321ZM136 744V115H274V0H23V744H136Z" />
<glyph unicode="&#x140;" glyph-name="ldot" horiz-adv-x="261" d="M254 322H150V450H254V322ZM127 0H20V744H127V0Z" />
<glyph unicode="&#x141;" glyph-name="Lslash" horiz-adv-x="297" d="M150 744V433L246 503V399L150 331V115H288V0H37V252L3 228V327L37 351V744H150Z" />
<glyph unicode="&#x142;" glyph-name="lslash" horiz-adv-x="169" d="M138 0H31V349L1 328V423L31 444V744H138V522L168 544V448L138 426V0Z" />
<glyph unicode="&#x143;" glyph-name="Nacute" horiz-adv-x="348" d="M125 744L222 345V744H325V0H233L125 428V0H23V744H125ZM168 882H262L218 773H126L168 882Z" />
<glyph unicode="&#x144;" glyph-name="nacute" horiz-adv-x="313" d="M20 538H125V475Q131 486 140 498T160 519T186 535T216 541H221Q242 541 255 533T277 513T289 486T293 458V0H185V403Q185 422 179 432T157 443Q140 443 134 432T127 399V0H20V538ZM149 697H239L199
567H111L149 697Z" />
<glyph unicode="&#x145;" glyph-name="uni0145" horiz-adv-x="348" d="M125 744L222 345V744H325V0H233L125 428V0H23V744H125ZM157 -196Q161 -186 165 -169T170 -131H132V-29H224V-93Q224 -135 216 -160T202 -196H157Z" />
<glyph unicode="&#x146;" glyph-name="uni0146" horiz-adv-x="313" d="M20 538H125V475Q131 486 140 498T160 519T186 535T216 541H221Q242 541 255 533T277 513T289 486T293 458V0H185V403Q185 422 179 432T157 443Q140 443 134 432T127 399V0H20V538ZM393 -196Q397
-186 401 -169T406 -131H368V-29H460V-93Q460 -135 452 -160T438 -196H393Z" />
<glyph unicode="&#x147;" glyph-name="Ncaron" horiz-adv-x="348" d="M125 744L222 345V744H325V0H233L125 428V0H23V744H125ZM70 882H151L178 834L205 882H285L222 773H133L70 882Z" />
<glyph unicode="&#x148;" glyph-name="ncaron" horiz-adv-x="313" d="M20 538H125V475Q131 486 140 498T160 519T186 535T216 541H221Q242 541 255 533T277 513T289 486T293 458V0H185V403Q185 422 179 432T157 443Q140 443 134 432T127 399V0H20V538ZM310 697H389L414
633L439 697H516L459 567H367L310 697Z" />
<glyph unicode="&#x149;" glyph-name="napostrophe" horiz-adv-x="388" d="M95 538H200V475Q206 486 215 498T235 519T261 535T291 541H296Q317 541 330 533T352 513T364 486T368 458V0H260V403Q260 422 254 432T232 443Q215 443 209 432T202 399V0H95V538ZM280
547Q285 561 290 585T298 632H258V744H357V662Q357 624 350 594T335 547H280Z" />
<glyph unicode="&#x14a;" glyph-name="Eng" horiz-adv-x="348" d="M229 -188H171V-86H197Q211 -86 217 -80T223 -58V0L125 426V0H23V744H127L223 323V744H325V-77Q325 -138 303 -163T229 -188Z" />
<glyph unicode="&#x14b;" glyph-name="eng" horiz-adv-x="313" d="M185 403Q185 422 179 432T157 443Q140 443 134 432T127 399V0H20V538H125V475Q138 498 161 519T216 541H221Q242 541 255 533T277 513T289 486T293 458V-110Q293 -134 287 -149T270 -173T248
-185T223 -188H141V-86H164Q185 -86 185 -62V403Z" />
<glyph unicode="&#x14c;" glyph-name="Omacron" horiz-adv-x="349" d="M329 166Q329 127 322 95T298 40T254 4T185 -9H166Q125 -9 98 3T53 39T28 95T20 166V580Q20 619 27 650T52 704T97 739T165 751H184Q225 751 253 739T298 705T322 651T329 581V166ZM214 586Q214
643 175 643Q153 643 144 629T135 586V158Q135 134 143 118T176 101Q199 101 206 117T214 158V586ZM88 859H261V780H88V859Z" />
<glyph unicode="&#x14d;" glyph-name="omacron" horiz-adv-x="310" d="M17 130V407Q17 474 50 510T145 546H165Q225 546 259 512T293 411V130Q293 103 285 78T260 34T220 3T165 -9H145Q110 -9 86 2T46 33T24 78T17 130ZM125 406V135Q125 115 132 104T155 93Q171
93 178 105T185 135V406Q185 429 177 438T155 447Q141 447 133 438T125 406ZM325 656H497V579H325V656Z" />
<glyph unicode="&#x14e;" glyph-name="Obreve" horiz-adv-x="349" d="M329 166Q329 127 322 95T298 40T254 4T185 -9H166Q125 -9 98 3T53 39T28 95T20 166V580Q20 619 27 650T52 704T97 739T165 751H184Q225 751 253 739T298 705T322 651T329 581V166ZM214 586Q214
643 175 643Q153 643 144 629T135 586V158Q135 134 143 118T176 101Q199 101 206 117T214 158V586ZM176 770H173Q131 770 103 794T74 864V870H151V866Q151 839 174 839H175Q186 839 192 846T199 866V870H275V864Q275 818 245 794T176 770Z" />
<glyph unicode="&#x14f;" glyph-name="obreve" horiz-adv-x="310" d="M17 130V407Q17 474 50 510T145 546H165Q225 546 259 512T293 411V130Q293 103 285 78T260 34T220 3T165 -9H145Q110 -9 86 2T46 33T24 78T17 130ZM125 406V135Q125 115 132 104T155 93Q171
93 178 105T185 135V406Q185 429 177 438T155 447Q141 447 133 438T125 406ZM413 565H410Q365 565 337 590T309 668V672H387V668Q387 634 411 634H412Q422 634 429 642T436 668V672H511V668Q511 615 483 590T413 565Z" />
<glyph unicode="&#x150;" glyph-name="Ohungarumlaut" horiz-adv-x="349" d="M329 166Q329 127 322 95T298 40T254 4T185 -9H166Q125 -9 98 3T53 39T28 95T20 166V580Q20 619 27 650T52 704T97 739T165 751H184Q225 751 253 739T298 705T322 651T329 581V166ZM214
586Q214 643 175 643Q153 643 144 629T135 586V158Q135 134 143 118T176 101Q199 101 206 117T214 158V586ZM194 773L223 881H301L269 773H194ZM122 881H200L172 773H97L122 881Z" />
<glyph unicode="&#x151;" glyph-name="ohungarumlaut" horiz-adv-x="310" d="M17 130V407Q17 474 50 510T145 546H165Q225 546 259 512T293 411V130Q293 103 285 78T260 34T220 3T165 -9H145Q110 -9 86 2T46 33T24 78T17 130ZM125 406V135Q125 115 132 104T155
93Q171 93 178 105T185 135V406Q185 429 177 438T155 447Q141 447 133 438T125 406ZM171 567L198 694H274L245 567H171ZM98 694H174L147 567H73L98 694Z" />
<glyph unicode="&#x152;" glyph-name="OE" horiz-adv-x="486" d="M20 582Q20 659 46 705T127 751H130Q152 751 167 746T193 732T210 714T221 697V744H469V636H329V441H439V328H329V113H476V0H221V51Q210 29 189 10T128 -10H125Q81 -10 51 30T20 160V582ZM216 578Q216
607 208 624T177 641Q154 641 146 624T137 578V167Q137 138 145 121T177 104Q200 104 208 121T216 167V578Z" />
<glyph unicode="&#x153;" glyph-name="oe" horiz-adv-x="463" d="M288 253V130Q288 113 294 103T317 92Q331 92 337 102T344 130V217H447V126Q447 88 437 63T411 21T372 -3T325 -10H308Q267 -10 250 2T228 21Q226 18 221 13T206 3T184 -6T154 -10H137Q104 -10
82 2T45 33T24 78T17 130V408Q17 473 48 509T136 546H152Q194 546 211 535T235 517Q240 524 258 535T311 546H330Q390 546 418 514T447 427V253H288ZM125 138Q125 122 131 109T155 96Q174 96 179 110T185 138V404Q185 424 179 435T155 446Q138 446 132 435T125
404V138ZM288 347H347V411Q347 429 342 442T318 455Q298 455 293 443T288 414V347Z" />
<glyph unicode="&#x154;" glyph-name="Racute" horiz-adv-x="339" d="M136 438H166Q189 438 198 452T207 491V595Q207 619 200 631T166 643H136V438ZM136 0H23V744H206Q263 744 291 718T319 629V497Q319 474 314 458T302 430T286 412T270 402Q289 394 304 377T319
321V60Q319 37 322 25T330 5V0H218Q214 6 211 18T207 61V285Q207 310 200 321T165 332H136V0ZM159 882H253L209 773H117L159 882Z" />
<glyph unicode="&#x155;" glyph-name="racute" horiz-adv-x="280" d="M125 470Q128 477 134 489T150 513T174 532T207 541H211Q240 541 253 524T267 480V285H163V405Q163 422 161 430T145 438Q132 438 130 430T127 405V0H20V538H125V470ZM396 697H486L446 567H358L396
697Z" />
<glyph unicode="&#x156;" glyph-name="uni0156" horiz-adv-x="339" d="M136 438H166Q189 438 198 452T207 491V595Q207 619 200 631T166 643H136V438ZM136 0H23V744H206Q263 744 291 718T319 629V497Q319 474 314 458T302 430T286 412T270 402Q289 394 304 377T319
321V60Q319 37 322 25T330 5V0H218Q214 6 211 18T207 61V285Q207 310 200 321T165 332H136V0ZM154 -196Q158 -186 162 -169T167 -131H129V-29H221V-93Q221 -135 213 -160T199 -196H154Z" />
<glyph unicode="&#x157;" glyph-name="uni0157" horiz-adv-x="280" d="M125 470Q128 477 134 489T150 513T174 532T207 541H211Q240 541 253 524T267 480V285H163V405Q163 422 161 430T145 438Q132 438 130 430T127 405V0H20V538H125V470ZM309 -196Q313 -186 317
-169T322 -131H284V-29H376V-93Q376 -135 368 -160T354 -196H309Z" />
<glyph unicode="&#x158;" glyph-name="Rcaron" horiz-adv-x="339" d="M136 438H166Q189 438 198 452T207 491V595Q207 619 200 631T166 643H136V438ZM136 0H23V744H206Q263 744 291 718T319 629V497Q319 474 314 458T302 430T286 412T270 402Q289 394 304 377T319
321V60Q319 37 322 25T330 5V0H218Q214 6 211 18T207 61V285Q207 310 200 321T165 332H136V0ZM312 882H393L420 834L447 882H527L464 773H375L312 882Z" />
<glyph unicode="&#x159;" glyph-name="rcaron" horiz-adv-x="280" d="M125 470Q128 477 134 489T150 513T174 532T207 541H211Q240 541 253 524T267 480V285H163V405Q163 422 161 430T145 438Q132 438 130 430T127 405V0H20V538H125V470ZM300 697H379L404 633L429
697H506L449 567H357L300 697Z" />
<glyph unicode="&#x15a;" glyph-name="Sacute" horiz-adv-x="333" d="M180 751Q250 751 279 720T309 622V500H200V607Q200 626 194 638T168 651Q148 651 142 638T135 599V585Q135 569 137 556T144 531T158 504T181 471L253 378Q272 353 285 333T305 291T316 246T320
190V166Q320 84 285 38T174 -8H152Q84 -8 49 28T14 133V282H126V152Q126 100 163 100Q183 100 191 114T200 164V181Q200 201 199 215T193 243T179 271T154 306L82 398Q64 421 52 442T33 485T23 530T20 582V606Q20 681 56 716T159 751H180ZM164 882H258L214 773H122L164
882Z" />
<glyph unicode="&#x15b;" glyph-name="sacute" horiz-adv-x="278" d="M262 449V368H166V432Q166 462 142 462Q128 462 124 454T119 429V420Q119 400 124 389T144 360L209 282Q228 259 239 241T257 206T266 172T269 134V120Q269 96 263 73T242 32T204 2T148 -9H127Q95
-9 73 -1T37 23T17 58T11 101V198H111V121Q111 100 117 92T138 84Q163 84 163 121V130Q163 147 159 165T134 207L71 279Q39 316 29 348T18 418V433Q18 484 45 515T134 546H153Q185 546 206 538T239 517T257 486T262 449ZM393 697H483L443 567H355L393 697Z" />
<glyph unicode="&#x15c;" glyph-name="Scircumflex" horiz-adv-x="333" d="M180 751Q250 751 279 720T309 622V500H200V607Q200 626 194 638T168 651Q148 651 142 638T135 599V585Q135 569 137 556T144 531T158 504T181 471L253 378Q272 353 285 333T305 291T316
246T320 190V166Q320 84 285 38T174 -8H152Q84 -8 49 28T14 133V282H126V152Q126 100 163 100Q183 100 191 114T200 164V181Q200 201 199 215T193 243T179 271T154 306L82 398Q64 421 52 442T33 485T23 530T20 582V606Q20 681 56 716T159 751H180ZM531 773H450L423
821L396 773H316L379 882H468L531 773Z" />
<glyph unicode="&#x15d;" glyph-name="scircumflex" horiz-adv-x="278" d="M262 449V368H166V432Q166 462 142 462Q128 462 124 454T119 429V420Q119 400 124 389T144 360L209 282Q228 259 239 241T257 206T266 172T269 134V120Q269 96 263 73T242 32T204 2T148
-9H127Q95 -9 73 -1T37 23T17 58T11 101V198H111V121Q111 100 117 92T138 84Q163 84 163 121V130Q163 147 159 165T134 207L71 279Q39 316 29 348T18 418V433Q18 484 45 515T134 546H153Q185 546 206 538T239 517T257 486T262 449ZM503 567H424L399 632L374 567H297L354
698H446L503 567Z" />
<glyph unicode="&#x15e;" glyph-name="uni015E" horiz-adv-x="333" d="M180 751Q250 751 279 720T309 622V500H200V607Q200 626 194 638T168 651Q148 651 142 638T135 599V585Q135 569 137 556T144 531T158 504T181 471L253 378Q272 353 285 333T305 291T316 246T320
190V166Q320 84 285 38T174 -8H152Q84 -8 49 28T14 133V282H126V152Q126 100 163 100Q183 100 191 114T200 164V181Q200 201 199 215T193 243T179 271T154 306L82 398Q64 421 52 442T33 485T23 530T20 582V606Q20 681 56 716T159 751H180ZM407 -188H352V-128H390Q414
-128 414 -110Q414 -91 390 -91H367V0H422V-40Q457 -40 478 -57T499 -111V-114Q499 -152 472 -170T407 -188Z" />
<glyph unicode="&#x15f;" glyph-name="uni015F" horiz-adv-x="278" d="M262 449V368H166V432Q166 462 142 462Q128 462 124 454T119 429V420Q119 400 124 389T144 360L209 282Q228 259 239 241T257 206T266 172T269 134V120Q269 96 263 73T242 32T204 2T148 -9H127Q95
-9 73 -1T37 23T17 58T11 101V198H111V121Q111 100 117 92T138 84Q163 84 163 121V130Q163 147 159 165T134 207L71 279Q39 316 29 348T18 418V433Q18 484 45 515T134 546H153Q185 546 206 538T239 517T257 486T262 449ZM380 -188H325V-128H363Q387 -128 387 -110Q387
-91 363 -91H340V0H395V-40Q430 -40 451 -57T472 -111V-114Q472 -152 445 -170T380 -188Z" />
<glyph unicode="&#x160;" glyph-name="Scaron" horiz-adv-x="333" d="M180 751Q250 751 279 720T309 622V500H200V607Q200 626 194 638T168 651Q148 651 142 638T135 599V585Q135 569 137 556T144 531T158 504T181 471L253 378Q272 353 285 333T305 291T316 246T320
190V166Q320 84 285 38T174 -8H152Q84 -8 49 28T14 133V282H126V152Q126 100 163 100Q183 100 191 114T200 164V181Q200 201 199 215T193 243T179 271T154 306L82 398Q64 421 52 442T33 485T23 530T20 582V606Q20 681 56 716T159 751H180ZM317 882H398L425 834L452
882H532L469 773H380L317 882Z" />
<glyph unicode="&#x161;" glyph-name="scaron" horiz-adv-x="278" d="M262 449V368H166V432Q166 462 142 462Q128 462 124 454T119 429V420Q119 400 124 389T144 360L209 282Q228 259 239 241T257 206T266 172T269 134V120Q269 96 263 73T242 32T204 2T148 -9H127Q95
-9 73 -1T37 23T17 58T11 101V198H111V121Q111 100 117 92T138 84Q163 84 163 121V130Q163 147 159 165T134 207L71 279Q39 316 29 348T18 418V433Q18 484 45 515T134 546H153Q185 546 206 538T239 517T257 486T262 449ZM297 697H376L401 633L426 697H503L446 567H354L297
697Z" />
<glyph unicode="&#x162;" glyph-name="Tcommaaccent" horiz-adv-x="320" d="M311 744V636H216V0H104V636H9V744H311ZM397 -196Q401 -186 405 -169T410 -131H372V-29H464V-93Q464 -135 456 -160T442 -196H397Z" />
<glyph unicode="&#x163;" glyph-name="tcommaaccent" horiz-adv-x="247" d="M131 0Q104 0 86 15T67 66V436H6V538H67V715H174V538H237V436H174V128Q174 114 177 109T195 103H237V0H131ZM395 -196Q399 -186 403 -169T408 -131H370V-29H462V-93Q462 -135 454 -160T440
-196H395Z" />
<glyph unicode="&#x164;" glyph-name="Tcaron" horiz-adv-x="320" d="M311 744V636H216V0H104V636H9V744H311ZM310 882H391L418 834L445 882H525L462 773H373L310 882Z" />
<glyph unicode="&#x165;" glyph-name="tcaron" horiz-adv-x="247" d="M199 744H280L268 600H192L199 744ZM131 0Q104 0 86 15T67 66V436H6V538H67V715H174V538H237V436H174V128Q174 114 177 109T195 103H237V0H131Z" />
<glyph unicode="&#x166;" glyph-name="Tbar" horiz-adv-x="320" d="M34 368V464H286V368H34ZM311 744V636H216V0H104V636H9V744H311Z" />
<glyph unicode="&#x167;" glyph-name="tbar" horiz-adv-x="247" d="M132 0Q105 0 87 15T68 66V254H6V348H68V435H6V538H68V715H175V538H238V435H175V348H238V254H175V129Q175 115 178 110T196 104H238V0H132Z" />
<glyph unicode="&#x168;" glyph-name="Utilde" horiz-adv-x="345" d="M21 744H136V155Q136 131 144 117T172 102Q192 102 200 116T209 155V744H324V162Q324 83 291 37T182 -9H162Q87 -9 54 36T21 162V744ZM270 832Q270 806 259 791T228 775H227Q213 775 200 779T170
792Q162 796 157 798T147 801Q140 801 140 792V773H76V820Q76 849 87 862T119 876H120Q133 876 144 873T174 860Q183 855 189 852T200 849Q206 849 206 858V878H270V832Z" />
<glyph unicode="&#x169;" glyph-name="utilde" horiz-adv-x="307" d="M287 0H184V64Q177 53 169 42T149 20T125 4T93 -2H91Q75 -2 62 5T40 26T25 55T20 89V538H127V135Q127 120 132 110T152 99Q169 99 174 110T180 138V538H287V0ZM509 672V626Q509 600 498 585T467
569H466Q452 569 439 573T409 586Q401 590 396 592T386 595Q379 595 379 586V567H315V614Q315 643 326 656T358 670H359Q372 670 383 667T413 654Q422 649 428 646T439 643Q445 643 445 652V672H509Z" />
<glyph unicode="&#x16a;" glyph-name="Umacron" horiz-adv-x="345" d="M21 744H136V155Q136 131 144 117T172 102Q192 102 200 116T209 155V744H324V162Q324 83 291 37T182 -9H162Q87 -9 54 36T21 162V744ZM86 859H259V780H86V859Z" />
<glyph unicode="&#x16b;" glyph-name="umacron" horiz-adv-x="307" d="M287 0H184V64Q177 53 169 42T149 20T125 4T93 -2H91Q75 -2 62 5T40 26T25 55T20 89V538H127V135Q127 120 132 110T152 99Q169 99 174 110T180 138V538H287V0ZM324 656H496V579H324V656Z" />
<glyph unicode="&#x16c;" glyph-name="Ubreve" horiz-adv-x="345" d="M21 744H136V155Q136 131 144 117T172 102Q192 102 200 116T209 155V744H324V162Q324 83 291 37T182 -9H162Q87 -9 54 36T21 162V744ZM174 770H171Q129 770 101 794T72 864V870H149V866Q149
839 172 839H173Q184 839 190 846T197 866V870H273V864Q273 818 243 794T174 770Z" />
<glyph unicode="&#x16d;" glyph-name="ubreve" horiz-adv-x="307" d="M287 0H184V64Q177 53 169 42T149 20T125 4T93 -2H91Q75 -2 62 5T40 26T25 55T20 89V538H127V135Q127 120 132 110T152 99Q169 99 174 110T180 138V538H287V0ZM411 565H408Q363 565 335 590T307
668V672H385V668Q385 634 409 634H410Q420 634 427 642T434 668V672H509V668Q509 615 481 590T411 565Z" />
<glyph unicode="&#x16e;" glyph-name="Uring" horiz-adv-x="345" d="M21 744H136V155Q136 131 144 117T172 102Q192 102 200 116T209 155V744H324V162Q324 83 291 37T182 -9H162Q87 -9 54 36T21 162V744ZM173 813Q187 813 195 822T204 846Q204 860 196 869T173
879Q159 879 151 870T142 846Q142 831 150 822T173 813ZM252 847Q252 812 230 789T173 766Q138 766 116 789T93 847Q93 880 116 903T173 926Q208 926 230 903T252 847Z" />
<glyph unicode="&#x16f;" glyph-name="uring" horiz-adv-x="307" d="M287 0H184V64Q177 53 169 42T149 20T125 4T93 -2H91Q75 -2 62 5T40 26T25 55T20 89V538H127V135Q127 120 132 110T152 99Q169 99 174 110T180 138V538H287V0ZM410 563Q375 563 353 586T330
644Q330 677 353 700T410 723Q445 723 467 700T489 644Q489 609 467 586T410 563ZM410 610Q424 610 432 619T441 643Q441 657 433 666T410 676Q396 676 388 667T379 643Q379 628 387 619T410 610Z" />
<glyph unicode="&#x170;" glyph-name="Uhungarumlaut" horiz-adv-x="345" d="M21 744H136V155Q136 131 144 117T172 102Q192 102 200 116T209 155V744H324V162Q324 83 291 37T182 -9H162Q87 -9 54 36T21 162V744ZM183 773L212 881H290L258 773H183ZM111 881H189L161
773H86L111 881Z" />
<glyph unicode="&#x171;" glyph-name="uhungarumlaut" horiz-adv-x="307" d="M287 0H184V64Q177 53 169 42T149 20T125 4T93 -2H91Q75 -2 62 5T40 26T25 55T20 89V538H127V135Q127 120 132 110T152 99Q169 99 174 110T180 138V538H287V0ZM424 567L451 694H527L498
567H424ZM351 694H427L400 567H326L351 694Z" />
<glyph unicode="&#x172;" glyph-name="Uogonek" horiz-adv-x="345" d="M263 0Q239 -31 229 -51T219 -91V-95Q219 -116 243 -116H262V-188H212Q182 -188 161 -172T140 -124V-109Q140 -83 156 -59T199 -8Q195 -9 191 -9T182 -9H162Q87 -9 54 36T21 162V744H136V155Q136
131 144 117T172 102Q192 102 200 116T209 155V744H324V162Q324 126 318 101T303 58T284 27T263 0Z" />
<glyph unicode="&#x173;" glyph-name="uogonek" horiz-adv-x="307" d="M287 0H184V64Q177 53 169 42T149 20T125 4T93 -2H91Q75 -2 62 5T40 26T25 55T20 89V538H127V135Q127 120 132 110T152 99Q169 99 174 110T180 138V538H287V0ZM165 -109Q165 -81 183 -55T231
0H287Q262 -34 253 -52T244 -91V-95Q244 -116 268 -116H287V-188H237Q207 -188 186 -172T165 -124V-109Z" />
<glyph unicode="&#x174;" glyph-name="Wcircumflex" horiz-adv-x="531" d="M321 744L372 262L424 744H530L435 0H314L267 433L219 0H94L1 744H115L166 263L216 744H321ZM374 773H293L266 821L239 773H159L222 882H311L374 773Z" />
<glyph unicode="&#x175;" glyph-name="wcircumflex" horiz-adv-x="460" d="M81 0L-1 538H106L146 203L187 538H281L322 203L362 538H461L379 0H271L232 306L193 0H81ZM336 567H257L232 632L207 567H130L187 698H279L336 567Z" />
<glyph unicode="&#x176;" glyph-name="Ycircumflex" horiz-adv-x="306" d="M211 309V0H98V310L-4 744H106L158 466L208 744H310L211 309ZM520 773H439L412 821L385 773H305L368 882H457L520 773Z" />
<glyph unicode="&#x177;" glyph-name="ycircumflex" horiz-adv-x="285" d="M-1 538H103L145 209L185 538H287L179 -108Q172 -148 157 -168T113 -188H12V-86H58Q72 -86 76 -80T82 -59L85 -36Q87 -19 86 -9T83 16L-1 538ZM504 567H425L400 632L375 567H298L355 698H447L504
567Z" />
<glyph unicode="&#x178;" glyph-name="Ydieresis" horiz-adv-x="306" d="M211 309V0H98V310L-4 744H106L158 466L208 744H310L211 309ZM399 773H309V872H399V773ZM515 773H425V872H515V773Z" />
<glyph unicode="&#x179;" glyph-name="Zacute" horiz-adv-x="305" d="M289 744V646L126 109H297V0H8V101L169 638H18V744H289ZM146 882H240L196 773H104L146 882Z" />
<glyph unicode="&#x17a;" glyph-name="zacute" horiz-adv-x="249" d="M233 538V449L109 98H241V0H7V94L128 442H18V538H233ZM374 697H464L424 567H336L374 697Z" />
<glyph unicode="&#x17b;" glyph-name="Zdotaccent" horiz-adv-x="305" d="M289 744V646L126 109H297V0H8V101L169 638H18V744H289ZM462 773H355V888H462V773Z" />
<glyph unicode="&#x17c;" glyph-name="zdotaccent" horiz-adv-x="249" d="M233 538V449L109 98H241V0H7V94L128 442H18V538H233ZM434 567H327V682H434V567Z" />
<glyph unicode="&#x17d;" glyph-name="Zcaron" horiz-adv-x="305" d="M289 744V646L126 109H297V0H8V101L169 638H18V744H289ZM302 882H383L410 834L437 882H517L454 773H365L302 882Z" />
<glyph unicode="&#x17e;" glyph-name="zcaron" horiz-adv-x="249" d="M233 538V449L109 98H241V0H7V94L128 442H18V538H233ZM279 697H358L383 633L408 697H485L428 567H336L279 697Z" />
<glyph unicode="&#x192;" glyph-name="uni0192" horiz-adv-x="260" d="M65 373H11V476H70L79 665Q80 683 84 697T101 722T132 738T183 744H247V646H212Q198 645 192 639T184 614L177 476H247V373H173L147 -188H40L65 373Z" />
<glyph unicode="&#x1fa;" glyph-name="Aringacute" horiz-adv-x="320" d="M157 1054H251L207 945H115L157 1054ZM197 140H114L100 0H-1L90 744H224L321 0H212L197 140ZM126 251H185L155 526L126 251ZM415 813Q429 813 437 822T446 846Q446 860 438 869T415 879Q401
879 393 870T384 846Q384 831 392 822T415 813ZM494 847Q494 812 472 789T415 766Q380 766 358 789T335 847Q335 880 358 903T415 926Q450 926 472 903T494 847Z" />
<glyph unicode="&#x1fb;" glyph-name="aringacute" horiz-adv-x="310" d="M15 207Q15 247 26 272T66 315Q75 321 88 328T116 341T141 354T159 363Q167 368 169 371T172 386V420Q172 440 166 447T146 455H144Q128 455 123 447T117 421V364H21V440Q21 455 24 473T39
506T73 531T134 542H154Q193 542 216 534T253 510T270 476T275 436V116Q275 106 278 103T292 99H311V0H209Q192 0 183 13T174 61Q169 52 162 41T143 20T117 4T86 -3H83Q67 -3 55 4T33 23T20 50T15 81V207ZM172 272Q163 267 153 260T134 245Q126 237 123 228T120
202V128Q120 93 145 93Q172 93 172 133V272ZM399 563Q364 563 342 586T319 644Q319 677 342 700T399 723Q434 723 456 700T478 644Q478 609 456 586T399 563ZM399 610Q413 610 421 619T430 643Q430 657 422 666T399 676Q385 676 377 667T368 643Q368 628 376 619T399
610ZM139 872H229L189 742H101L139 872Z" />
<glyph unicode="&#x1fc;" glyph-name="AEacute" horiz-adv-x="486" d="M216 0V144H130L104 0H-4L137 744H469V636H329V441H439V328H329V113H476V0H216ZM216 254V620L150 254H216ZM293 882H387L343 773H251L293 882Z" />
<glyph unicode="&#x1fd;" glyph-name="aeacute" horiz-adv-x="450" d="M181 59Q169 38 146 18T88 -3H85Q68 -3 55 4T33 23T20 50T15 81V185Q15 225 26 250T66 293Q75 299 88 306T116 319T141 332T159 341Q167 346 169 349T172 364V422Q172 442 166 449T146 457H144Q128
457 123 449T117 423V342H21V442Q21 457 24 475T39 508T73 533T134 544H152Q173 544 186 541T208 532T221 523T227 515Q231 521 248 533T300 546H317Q379 546 406 512T434 412V253H275V133Q275 115 281 104T304 93Q318 93 324 104T331 132V217H434V128Q434 90 424
64T398 22T359 -2T313 -9H296Q264 -9 244 -2T211 15T191 37T181 59ZM172 250Q163 245 153 238T134 223Q126 215 123 206T120 180V128Q120 93 145 93Q172 93 172 133V250ZM275 347H334V414Q334 431 329 443T305 456Q285 456 280 444T275 414V347ZM221 697H311L271
567H183L221 697Z" />
<glyph unicode="&#x1fe;" glyph-name="Oslashacute" horiz-adv-x="349" d="M330 152Q330 118 321 89T293 37T249 3T187 -10H166Q131 -10 110 2T78 25L67 0H-1L30 81Q24 95 22 113T19 152V581Q19 619 26 650T51 704T96 739T163 751H186Q219 751 239 742T273 720L282
744H350L319 661Q330 626 330 582V152ZM175 641Q149 641 140 627T131 585V328L219 584V586Q219 641 175 641ZM175 105Q202 105 210 120T219 154V415L131 161V153Q131 136 140 121T175 105ZM171 882H265L221 773H129L171 882Z" />
<glyph unicode="&#x1ff;" glyph-name="oslashacute" horiz-adv-x="306" d="M17 130V407Q17 474 49 510T142 546H164Q190 546 210 539T245 517L255 538H316L282 463Q289 441 289 411V130Q289 103 281 78T257 34T218 3T164 -9H142Q113 -9 94 -1T62 22L52 0H-9L25
74Q20 87 19 101T17 130ZM186 406Q186 429 178 438T153 447Q137 447 129 438T120 406V252L186 402V406ZM153 93Q171 93 178 105T186 135V281L120 134Q120 115 128 104T153 93ZM147 697H237L197 567H109L147 697Z" />
<glyph unicode="&#x218;" glyph-name="uni0218" horiz-adv-x="333" d="M180 751Q250 751 279 720T309 622V500H200V607Q200 626 194 638T168 651Q148 651 142 638T135 599V585Q135 569 137 556T144 531T158 504T181 471L253 378Q272 353 285 333T305 291T316 246T320
190V166Q320 84 285 38T174 -8H152Q84 -8 49 28T14 133V282H126V152Q126 100 163 100Q183 100 191 114T200 164V181Q200 201 199 215T193 243T179 271T154 306L82 398Q64 421 52 442T33 485T23 530T20 582V606Q20 681 56 716T159 751H180ZM398 -196Q402 -186 406
-169T411 -131H373V-29H465V-93Q465 -135 457 -160T443 -196H398Z" />
<glyph unicode="&#x219;" glyph-name="uni0219" horiz-adv-x="278" d="M262 449V368H166V432Q166 462 142 462Q128 462 124 454T119 429V420Q119 400 124 389T144 360L209 282Q228 259 239 241T257 206T266 172T269 134V120Q269 96 263 73T242 32T204 2T148 -9H127Q95
-9 73 -1T37 23T17 58T11 101V198H111V121Q111 100 117 92T138 84Q163 84 163 121V130Q163 147 159 165T134 207L71 279Q39 316 29 348T18 418V433Q18 484 45 515T134 546H153Q185 546 206 538T239 517T257 486T262 449ZM372 -196Q376 -186 380 -169T385 -131H347V-29H439V-93Q439
-135 431 -160T417 -196H372Z" />
<glyph unicode="&#x21a;" glyph-name="uni021A" horiz-adv-x="320" d="M311 744V636H216V0H104V636H9V744H311ZM397 -196Q401 -186 405 -169T410 -131H372V-29H464V-93Q464 -135 456 -160T442 -196H397Z" />
<glyph unicode="&#x21b;" glyph-name="uni021B" horiz-adv-x="247" d="M131 0Q104 0 86 15T67 66V436H6V538H67V715H174V538H237V436H174V128Q174 114 177 109T195 103H237V0H131ZM395 -196Q399 -186 403 -169T408 -131H370V-29H462V-93Q462 -135 454 -160T440 -196H395Z" />
<glyph unicode="&#x237;" glyph-name="uni0237" horiz-adv-x="148" d="M0 -86Q21 -86 21 -62V538H128V-110Q128 -134 122 -149T106 -173T84 -185T59 -188H-50V-86H0Z" />
<glyph unicode="&#x2c6;" glyph-name="circumflex" horiz-adv-x="342" d="M274 567H195L170 632L145 567H68L125 698H217L274 567Z" />
<glyph unicode="&#x2c7;" glyph-name="caron" horiz-adv-x="342" d="M68 697H147L172 633L197 697H274L217 567H125L68 697Z" />
<glyph unicode="&#x2d8;" glyph-name="breve" horiz-adv-x="342" d="M174 565H171Q126 565 98 590T70 668V672H148V668Q148 634 172 634H173Q183 634 190 642T197 668V672H272V668Q272 615 244 590T174 565Z" />
<glyph unicode="&#x2d9;" glyph-name="dotaccent" horiz-adv-x="342" d="M224 567H117V682H224V567Z" />
<glyph unicode="&#x2da;" glyph-name="ring" horiz-adv-x="342" d="M172 563Q137 563 115 586T92 644Q92 677 115 700T172 723Q207 723 229 700T251 644Q251 609 229 586T172 563ZM172 610Q186 610 194 619T203 643Q203 657 195 666T172 676Q158 676 150 667T141
643Q141 628 149 619T172 610Z" />
<glyph unicode="&#x2db;" glyph-name="ogonek" horiz-adv-x="342" d="M109 -109Q109 -81 127 -55T175 0H231Q206 -34 197 -52T188 -91V-95Q188 -116 212 -116H231V-188H181Q151 -188 130 -172T109 -124V-109Z" />
<glyph unicode="&#x2dc;" glyph-name="tilde" horiz-adv-x="342" d="M268 672V626Q268 600 257 585T226 569H225Q211 569 198 573T168 586Q160 590 155 592T145 595Q138 595 138 586V567H74V614Q74 643 85 656T117 670H118Q131 670 142 667T172 654Q181 649 187
646T198 643Q204 643 204 652V672H268Z" />
<glyph unicode="&#x2dd;" glyph-name="hungarumlaut" horiz-adv-x="342" d="M169 567L196 694H272L243 567H169ZM96 694H172L145 567H71L96 694Z" />
</font>
</defs>
</svg>
